%TF.GenerationSoftware,KiCad,Pcbnew,5.1.6-c6e7f7d~87~ubuntu18.04.1*%
%TF.CreationDate,2021-09-19T16:35:13+09:00*%
%TF.ProjectId,M921-SS,4d393231-2d53-4532-9e6b-696361645f70,1.00*%
%TF.SameCoordinates,Original*%
%TF.FileFunction,Copper,L1,Top*%
%TF.FilePolarity,Positive*%
%FSLAX46Y46*%
G04 Gerber Fmt 4.6, Leading zero omitted, Abs format (unit mm)*
G04 Created by KiCad (PCBNEW 5.1.6-c6e7f7d~87~ubuntu18.04.1) date 2021-09-19 16:35:13*
%MOMM*%
%LPD*%
G01*
G04 APERTURE LIST*
%TA.AperFunction,ComponentPad*%
%ADD10O,1.950000X1.700000*%
%TD*%
%TA.AperFunction,ComponentPad*%
%ADD11C,1.400000*%
%TD*%
%TA.AperFunction,ComponentPad*%
%ADD12R,1.400000X1.400000*%
%TD*%
%TA.AperFunction,ComponentPad*%
%ADD13C,1.600000*%
%TD*%
%TA.AperFunction,ComponentPad*%
%ADD14R,1.600000X1.600000*%
%TD*%
%TA.AperFunction,Conductor*%
%ADD15C,1.000000*%
%TD*%
G04 APERTURE END LIST*
D10*
%TO.P,J2,4*%
%TO.N,GND*%
X114046000Y-59683000D03*
%TO.P,J2,3*%
%TO.N,Net-(C3-Pad1)*%
X114046000Y-62183000D03*
%TO.P,J2,2*%
%TO.N,Net-(C2-Pad1)*%
X114046000Y-64683000D03*
%TO.P,J2,1*%
%TO.N,Net-(C1-Pad1)*%
%TA.AperFunction,ComponentPad*%
G36*
G01*
X114771000Y-68033000D02*
X113321000Y-68033000D01*
G75*
G02*
X113071000Y-67783000I0J250000D01*
G01*
X113071000Y-66583000D01*
G75*
G02*
X113321000Y-66333000I250000J0D01*
G01*
X114771000Y-66333000D01*
G75*
G02*
X115021000Y-66583000I0J-250000D01*
G01*
X115021000Y-67783000D01*
G75*
G02*
X114771000Y-68033000I-250000J0D01*
G01*
G37*
%TD.AperFunction*%
%TD*%
%TO.P,J1,6*%
%TO.N,Net-(D3-Pad3)*%
X86106000Y-56842000D03*
%TO.P,J1,5*%
%TO.N,Net-(D3-Pad4)*%
X86106000Y-59342000D03*
%TO.P,J1,4*%
%TO.N,Net-(D2-Pad3)*%
X86106000Y-61842000D03*
%TO.P,J1,3*%
%TO.N,Net-(D2-Pad4)*%
X86106000Y-64342000D03*
%TO.P,J1,2*%
%TO.N,Net-(D1-Pad3)*%
X86106000Y-66842000D03*
%TO.P,J1,1*%
%TO.N,Net-(D1-Pad4)*%
%TA.AperFunction,ComponentPad*%
G36*
G01*
X86831000Y-70192000D02*
X85381000Y-70192000D01*
G75*
G02*
X85131000Y-69942000I0J250000D01*
G01*
X85131000Y-68742000D01*
G75*
G02*
X85381000Y-68492000I250000J0D01*
G01*
X86831000Y-68492000D01*
G75*
G02*
X87081000Y-68742000I0J-250000D01*
G01*
X87081000Y-69942000D01*
G75*
G02*
X86831000Y-70192000I-250000J0D01*
G01*
G37*
%TD.AperFunction*%
%TD*%
D11*
%TO.P,D3,4*%
%TO.N,Net-(D3-Pad4)*%
X94615000Y-58420000D03*
%TO.P,D3,2*%
%TO.N,GND*%
X99695000Y-55880000D03*
%TO.P,D3,3*%
%TO.N,Net-(D3-Pad3)*%
X94615000Y-55880000D03*
D12*
%TO.P,D3,1*%
%TO.N,Net-(C3-Pad1)*%
X99695000Y-58420000D03*
%TD*%
D11*
%TO.P,D2,4*%
%TO.N,Net-(D2-Pad4)*%
X94615000Y-64389000D03*
%TO.P,D2,2*%
%TO.N,GND*%
X99695000Y-61849000D03*
%TO.P,D2,3*%
%TO.N,Net-(D2-Pad3)*%
X94615000Y-61849000D03*
D12*
%TO.P,D2,1*%
%TO.N,Net-(C2-Pad1)*%
X99695000Y-64389000D03*
%TD*%
D11*
%TO.P,D1,4*%
%TO.N,Net-(D1-Pad4)*%
X94615000Y-70358000D03*
%TO.P,D1,2*%
%TO.N,GND*%
X99695000Y-67818000D03*
%TO.P,D1,3*%
%TO.N,Net-(D1-Pad3)*%
X94615000Y-67818000D03*
D12*
%TO.P,D1,1*%
%TO.N,Net-(C1-Pad1)*%
X99695000Y-70358000D03*
%TD*%
D13*
%TO.P,C3,2*%
%TO.N,GND*%
X105664000Y-56039000D03*
D14*
%TO.P,C3,1*%
%TO.N,Net-(C3-Pad1)*%
X105664000Y-58039000D03*
%TD*%
D13*
%TO.P,C2,2*%
%TO.N,GND*%
X105664000Y-62262000D03*
D14*
%TO.P,C2,1*%
%TO.N,Net-(C2-Pad1)*%
X105664000Y-64262000D03*
%TD*%
D13*
%TO.P,C1,2*%
%TO.N,GND*%
X105664000Y-68485000D03*
D14*
%TO.P,C1,1*%
%TO.N,Net-(C1-Pad1)*%
X105664000Y-70485000D03*
%TD*%
D15*
%TO.N,Net-(C1-Pad1)*%
X105537000Y-70358000D02*
X105664000Y-70485000D01*
X99695000Y-70358000D02*
X105537000Y-70358000D01*
X110744000Y-70485000D02*
X114046000Y-67183000D01*
X105664000Y-70485000D02*
X110744000Y-70485000D01*
%TO.N,Net-(C2-Pad1)*%
X105537000Y-64389000D02*
X105664000Y-64262000D01*
X99695000Y-64389000D02*
X105537000Y-64389000D01*
X105664000Y-64262000D02*
X109347000Y-64262000D01*
X109768000Y-64683000D02*
X114046000Y-64683000D01*
X109347000Y-64262000D02*
X109768000Y-64683000D01*
%TO.N,Net-(C3-Pad1)*%
X105283000Y-58420000D02*
X105664000Y-58039000D01*
X99695000Y-58420000D02*
X105283000Y-58420000D01*
X105664000Y-58039000D02*
X106934000Y-58039000D01*
X111078000Y-62183000D02*
X114046000Y-62183000D01*
X106934000Y-58039000D02*
X111078000Y-62183000D01*
%TO.N,Net-(D1-Pad4)*%
X86106000Y-69342000D02*
X89662000Y-69342000D01*
X90678000Y-70358000D02*
X94615000Y-70358000D01*
X89662000Y-69342000D02*
X90678000Y-70358000D01*
%TO.N,Net-(D1-Pad3)*%
X86106000Y-66842000D02*
X90972000Y-66842000D01*
X91948000Y-67818000D02*
X94615000Y-67818000D01*
X90972000Y-66842000D02*
X91948000Y-67818000D01*
%TO.N,Net-(D2-Pad4)*%
X94568000Y-64342000D02*
X94615000Y-64389000D01*
X86106000Y-64342000D02*
X94568000Y-64342000D01*
%TO.N,Net-(D2-Pad3)*%
X94608000Y-61842000D02*
X94615000Y-61849000D01*
X86106000Y-61842000D02*
X94608000Y-61842000D01*
%TO.N,Net-(D3-Pad4)*%
X86106000Y-59342000D02*
X91153000Y-59342000D01*
X92075000Y-58420000D02*
X94615000Y-58420000D01*
X91153000Y-59342000D02*
X92075000Y-58420000D01*
%TO.N,Net-(D3-Pad3)*%
X86106000Y-56842000D02*
X90478000Y-56842000D01*
X91440000Y-55880000D02*
X94615000Y-55880000D01*
X90478000Y-56842000D02*
X91440000Y-55880000D01*
%TD*%
M02*
