M48
; DRILL file {KiCad 5.1.6-c6e7f7d~87~ubuntu18.04.1} date Sun Sep 19 16:35:20 2021
; FORMAT={-:-/ absolute / inch / decimal}
; #@! TF.CreationDate,2021-09-19T16:35:20+09:00
; #@! TF.GenerationSoftware,Kicad,Pcbnew,5.1.6-c6e7f7d~87~ubuntu18.04.1
; #@! TF.FileFunction,Plated,1,2,PTH
FMAT,2
INCH
T1C0.0276
T2C0.0315
T3C0.0374
%
G90
G05
T1
X3.725Y-2.2
X3.725Y-2.3
X3.925Y-2.2
X3.925Y-2.3
X3.725Y-2.67
X3.725Y-2.77
X3.925Y-2.67
X3.925Y-2.77
X3.725Y-2.435
X3.725Y-2.535
X3.925Y-2.435
X3.925Y-2.535
T2
X4.16Y-2.4513
X4.16Y-2.53
X4.16Y-2.6963
X4.16Y-2.775
X4.16Y-2.2063
X4.16Y-2.285
T3
X3.39Y-2.2379
X3.39Y-2.3363
X3.39Y-2.4347
X3.39Y-2.5331
X3.39Y-2.6316
X3.39Y-2.73
X4.49Y-2.3497
X4.49Y-2.4481
X4.49Y-2.5466
X4.49Y-2.645
T0
M30
