%TF.GenerationSoftware,KiCad,Pcbnew,5.1.6-c6e7f7d~87~ubuntu18.04.1*%
%TF.CreationDate,2021-09-19T16:35:13+09:00*%
%TF.ProjectId,M921-SS,4d393231-2d53-4532-9e6b-696361645f70,1.00*%
%TF.SameCoordinates,Original*%
%TF.FileFunction,Legend,Top*%
%TF.FilePolarity,Positive*%
%FSLAX46Y46*%
G04 Gerber Fmt 4.6, Leading zero omitted, Abs format (unit mm)*
G04 Created by KiCad (PCBNEW 5.1.6-c6e7f7d~87~ubuntu18.04.1) date 2021-09-19 16:35:13*
%MOMM*%
%LPD*%
G01*
G04 APERTURE LIST*
%ADD10C,0.150000*%
%ADD11C,0.120000*%
%ADD12C,0.100000*%
%ADD13C,0.125000*%
G04 APERTURE END LIST*
D10*
X83075714Y-75382380D02*
X83075714Y-74382380D01*
X83075714Y-74858571D02*
X83647142Y-74858571D01*
X83647142Y-75382380D02*
X83647142Y-74382380D01*
X84313809Y-74382380D02*
X84504285Y-74382380D01*
X84599523Y-74430000D01*
X84694761Y-74525238D01*
X84742380Y-74715714D01*
X84742380Y-75049047D01*
X84694761Y-75239523D01*
X84599523Y-75334761D01*
X84504285Y-75382380D01*
X84313809Y-75382380D01*
X84218571Y-75334761D01*
X84123333Y-75239523D01*
X84075714Y-75049047D01*
X84075714Y-74715714D01*
X84123333Y-74525238D01*
X84218571Y-74430000D01*
X84313809Y-74382380D01*
X85647142Y-75382380D02*
X85170952Y-75382380D01*
X85170952Y-74382380D01*
X86456666Y-75382380D02*
X85980476Y-75382380D01*
X85980476Y-74382380D01*
X86980476Y-74906190D02*
X86980476Y-75382380D01*
X86647142Y-74382380D02*
X86980476Y-74906190D01*
X87313809Y-74382380D01*
X88456666Y-75382380D02*
X88409047Y-75382380D01*
X88313809Y-75334761D01*
X88170952Y-75191904D01*
X87932857Y-74906190D01*
X87837619Y-74763333D01*
X87790000Y-74620476D01*
X87790000Y-74525238D01*
X87837619Y-74430000D01*
X87932857Y-74382380D01*
X87980476Y-74382380D01*
X88075714Y-74430000D01*
X88123333Y-74525238D01*
X88123333Y-74572857D01*
X88075714Y-74668095D01*
X88028095Y-74715714D01*
X87742380Y-74906190D01*
X87694761Y-74953809D01*
X87647142Y-75049047D01*
X87647142Y-75191904D01*
X87694761Y-75287142D01*
X87742380Y-75334761D01*
X87837619Y-75382380D01*
X87980476Y-75382380D01*
X88075714Y-75334761D01*
X88123333Y-75287142D01*
X88266190Y-75096666D01*
X88313809Y-74953809D01*
X88313809Y-74858571D01*
X89456666Y-75287142D02*
X89409047Y-75334761D01*
X89266190Y-75382380D01*
X89170952Y-75382380D01*
X89028095Y-75334761D01*
X88932857Y-75239523D01*
X88885238Y-75144285D01*
X88837619Y-74953809D01*
X88837619Y-74810952D01*
X88885238Y-74620476D01*
X88932857Y-74525238D01*
X89028095Y-74430000D01*
X89170952Y-74382380D01*
X89266190Y-74382380D01*
X89409047Y-74430000D01*
X89456666Y-74477619D01*
X90075714Y-74382380D02*
X90266190Y-74382380D01*
X90361428Y-74430000D01*
X90456666Y-74525238D01*
X90504285Y-74715714D01*
X90504285Y-75049047D01*
X90456666Y-75239523D01*
X90361428Y-75334761D01*
X90266190Y-75382380D01*
X90075714Y-75382380D01*
X89980476Y-75334761D01*
X89885238Y-75239523D01*
X89837619Y-75049047D01*
X89837619Y-74715714D01*
X89885238Y-74525238D01*
X89980476Y-74430000D01*
X90075714Y-74382380D01*
X90932857Y-75287142D02*
X90980476Y-75334761D01*
X90932857Y-75382380D01*
X90885238Y-75334761D01*
X90932857Y-75287142D01*
X90932857Y-75382380D01*
X91456666Y-75334761D02*
X91456666Y-75382380D01*
X91409047Y-75477619D01*
X91361428Y-75525238D01*
X92361428Y-75382380D02*
X91885238Y-75382380D01*
X91885238Y-74382380D01*
X92551904Y-74382380D02*
X93123333Y-74382380D01*
X92837619Y-75382380D02*
X92837619Y-74382380D01*
X93456666Y-75382380D02*
X93456666Y-74382380D01*
X93694761Y-74382380D01*
X93837619Y-74430000D01*
X93932857Y-74525238D01*
X93980476Y-74620476D01*
X94028095Y-74810952D01*
X94028095Y-74953809D01*
X93980476Y-75144285D01*
X93932857Y-75239523D01*
X93837619Y-75334761D01*
X93694761Y-75382380D01*
X93456666Y-75382380D01*
X94456666Y-75287142D02*
X94504285Y-75334761D01*
X94456666Y-75382380D01*
X94409047Y-75334761D01*
X94456666Y-75287142D01*
X94456666Y-75382380D01*
X95647142Y-74477619D02*
X95694761Y-74430000D01*
X95790000Y-74382380D01*
X96028095Y-74382380D01*
X96123333Y-74430000D01*
X96170952Y-74477619D01*
X96218571Y-74572857D01*
X96218571Y-74668095D01*
X96170952Y-74810952D01*
X95599523Y-75382380D01*
X96218571Y-75382380D01*
X96837619Y-74382380D02*
X96932857Y-74382380D01*
X97028095Y-74430000D01*
X97075714Y-74477619D01*
X97123333Y-74572857D01*
X97170952Y-74763333D01*
X97170952Y-75001428D01*
X97123333Y-75191904D01*
X97075714Y-75287142D01*
X97028095Y-75334761D01*
X96932857Y-75382380D01*
X96837619Y-75382380D01*
X96742380Y-75334761D01*
X96694761Y-75287142D01*
X96647142Y-75191904D01*
X96599523Y-75001428D01*
X96599523Y-74763333D01*
X96647142Y-74572857D01*
X96694761Y-74477619D01*
X96742380Y-74430000D01*
X96837619Y-74382380D01*
X97551904Y-74477619D02*
X97599523Y-74430000D01*
X97694761Y-74382380D01*
X97932857Y-74382380D01*
X98028095Y-74430000D01*
X98075714Y-74477619D01*
X98123333Y-74572857D01*
X98123333Y-74668095D01*
X98075714Y-74810952D01*
X97504285Y-75382380D01*
X98123333Y-75382380D01*
X99075714Y-75382380D02*
X98504285Y-75382380D01*
X98789999Y-75382380D02*
X98789999Y-74382380D01*
X98694761Y-74525238D01*
X98599523Y-74620476D01*
X98504285Y-74668095D01*
X101028095Y-75382380D02*
X101028095Y-74382380D01*
X101361428Y-75096666D01*
X101694761Y-74382380D01*
X101694761Y-75382380D01*
X102218571Y-75382380D02*
X102409047Y-75382380D01*
X102504285Y-75334761D01*
X102551904Y-75287142D01*
X102647142Y-75144285D01*
X102694761Y-74953809D01*
X102694761Y-74572857D01*
X102647142Y-74477619D01*
X102599523Y-74430000D01*
X102504285Y-74382380D01*
X102313809Y-74382380D01*
X102218571Y-74430000D01*
X102170952Y-74477619D01*
X102123333Y-74572857D01*
X102123333Y-74810952D01*
X102170952Y-74906190D01*
X102218571Y-74953809D01*
X102313809Y-75001428D01*
X102504285Y-75001428D01*
X102599523Y-74953809D01*
X102647142Y-74906190D01*
X102694761Y-74810952D01*
X103075714Y-74477619D02*
X103123333Y-74430000D01*
X103218571Y-74382380D01*
X103456666Y-74382380D01*
X103551904Y-74430000D01*
X103599523Y-74477619D01*
X103647142Y-74572857D01*
X103647142Y-74668095D01*
X103599523Y-74810952D01*
X103028095Y-75382380D01*
X103647142Y-75382380D01*
X104599523Y-75382380D02*
X104028095Y-75382380D01*
X104313809Y-75382380D02*
X104313809Y-74382380D01*
X104218571Y-74525238D01*
X104123333Y-74620476D01*
X104028095Y-74668095D01*
X105028095Y-75001428D02*
X105789999Y-75001428D01*
X106218571Y-75334761D02*
X106361428Y-75382380D01*
X106599523Y-75382380D01*
X106694761Y-75334761D01*
X106742380Y-75287142D01*
X106789999Y-75191904D01*
X106789999Y-75096666D01*
X106742380Y-75001428D01*
X106694761Y-74953809D01*
X106599523Y-74906190D01*
X106409047Y-74858571D01*
X106313809Y-74810952D01*
X106266190Y-74763333D01*
X106218571Y-74668095D01*
X106218571Y-74572857D01*
X106266190Y-74477619D01*
X106313809Y-74430000D01*
X106409047Y-74382380D01*
X106647142Y-74382380D01*
X106789999Y-74430000D01*
X107170952Y-75334761D02*
X107313809Y-75382380D01*
X107551904Y-75382380D01*
X107647142Y-75334761D01*
X107694761Y-75287142D01*
X107742380Y-75191904D01*
X107742380Y-75096666D01*
X107694761Y-75001428D01*
X107647142Y-74953809D01*
X107551904Y-74906190D01*
X107361428Y-74858571D01*
X107266190Y-74810952D01*
X107218571Y-74763333D01*
X107170952Y-74668095D01*
X107170952Y-74572857D01*
X107218571Y-74477619D01*
X107266190Y-74430000D01*
X107361428Y-74382380D01*
X107599523Y-74382380D01*
X107742380Y-74430000D01*
X109504285Y-75382380D02*
X109170952Y-74906190D01*
X108932857Y-75382380D02*
X108932857Y-74382380D01*
X109313809Y-74382380D01*
X109409047Y-74430000D01*
X109456666Y-74477619D01*
X109504285Y-74572857D01*
X109504285Y-74715714D01*
X109456666Y-74810952D01*
X109409047Y-74858571D01*
X109313809Y-74906190D01*
X108932857Y-74906190D01*
X110313809Y-75334761D02*
X110218571Y-75382380D01*
X110028095Y-75382380D01*
X109932857Y-75334761D01*
X109885238Y-75239523D01*
X109885238Y-74858571D01*
X109932857Y-74763333D01*
X110028095Y-74715714D01*
X110218571Y-74715714D01*
X110313809Y-74763333D01*
X110361428Y-74858571D01*
X110361428Y-74953809D01*
X109885238Y-75049047D01*
X110694761Y-74715714D02*
X110932857Y-75382380D01*
X111170952Y-74715714D01*
X111551904Y-75287142D02*
X111599523Y-75334761D01*
X111551904Y-75382380D01*
X111504285Y-75334761D01*
X111551904Y-75287142D01*
X111551904Y-75382380D01*
X112551904Y-75382380D02*
X111980476Y-75382380D01*
X112266190Y-75382380D02*
X112266190Y-74382380D01*
X112170952Y-74525238D01*
X112075714Y-74620476D01*
X111980476Y-74668095D01*
X118245000Y-59181904D02*
X118197380Y-59277142D01*
X118197380Y-59420000D01*
X118245000Y-59562857D01*
X118340238Y-59658095D01*
X118435476Y-59705714D01*
X118625952Y-59753333D01*
X118768809Y-59753333D01*
X118959285Y-59705714D01*
X119054523Y-59658095D01*
X119149761Y-59562857D01*
X119197380Y-59420000D01*
X119197380Y-59324761D01*
X119149761Y-59181904D01*
X119102142Y-59134285D01*
X118768809Y-59134285D01*
X118768809Y-59324761D01*
X119197380Y-58705714D02*
X118197380Y-58705714D01*
X119197380Y-58134285D01*
X118197380Y-58134285D01*
X119197380Y-57658095D02*
X118197380Y-57658095D01*
X118197380Y-57420000D01*
X118245000Y-57277142D01*
X118340238Y-57181904D01*
X118435476Y-57134285D01*
X118625952Y-57086666D01*
X118768809Y-57086666D01*
X118959285Y-57134285D01*
X119054523Y-57181904D01*
X119149761Y-57277142D01*
X119197380Y-57420000D01*
X119197380Y-57658095D01*
X118197380Y-63063333D02*
X118197380Y-62396666D01*
X119197380Y-63063333D01*
X119197380Y-62396666D01*
X119197380Y-62015714D02*
X118197380Y-62015714D01*
X118197380Y-61634761D01*
X118245000Y-61539523D01*
X118292619Y-61491904D01*
X118387857Y-61444285D01*
X118530714Y-61444285D01*
X118625952Y-61491904D01*
X118673571Y-61539523D01*
X118721190Y-61634761D01*
X118721190Y-62015714D01*
X118721190Y-65270000D02*
X119197380Y-65270000D01*
X118197380Y-65603333D02*
X118721190Y-65270000D01*
X118197380Y-64936666D01*
X119197380Y-64603333D02*
X118197380Y-64603333D01*
X118197380Y-64222380D01*
X118245000Y-64127142D01*
X118292619Y-64079523D01*
X118387857Y-64031904D01*
X118530714Y-64031904D01*
X118625952Y-64079523D01*
X118673571Y-64127142D01*
X118721190Y-64222380D01*
X118721190Y-64603333D01*
X118197380Y-68143333D02*
X119197380Y-67476666D01*
X118197380Y-67476666D02*
X119197380Y-68143333D01*
X119197380Y-67095714D02*
X118197380Y-67095714D01*
X118197380Y-66714761D01*
X118245000Y-66619523D01*
X118292619Y-66571904D01*
X118387857Y-66524285D01*
X118530714Y-66524285D01*
X118625952Y-66571904D01*
X118673571Y-66619523D01*
X118721190Y-66714761D01*
X118721190Y-67095714D01*
X82002380Y-59253333D02*
X82002380Y-58586666D01*
X83002380Y-59253333D01*
X83002380Y-58586666D01*
X83002380Y-58205714D02*
X82002380Y-58205714D01*
X82002380Y-57824761D01*
X82050000Y-57729523D01*
X82097619Y-57681904D01*
X82192857Y-57634285D01*
X82335714Y-57634285D01*
X82430952Y-57681904D01*
X82478571Y-57729523D01*
X82526190Y-57824761D01*
X82526190Y-58205714D01*
X82526190Y-64000000D02*
X83002380Y-64000000D01*
X82002380Y-64333333D02*
X82526190Y-64000000D01*
X82002380Y-63666666D01*
X83002380Y-63333333D02*
X82002380Y-63333333D01*
X82002380Y-62952380D01*
X82050000Y-62857142D01*
X82097619Y-62809523D01*
X82192857Y-62761904D01*
X82335714Y-62761904D01*
X82430952Y-62809523D01*
X82478571Y-62857142D01*
X82526190Y-62952380D01*
X82526190Y-63333333D01*
X82002380Y-69413333D02*
X83002380Y-68746666D01*
X82002380Y-68746666D02*
X83002380Y-69413333D01*
X83002380Y-68365714D02*
X82002380Y-68365714D01*
X82002380Y-67984761D01*
X82050000Y-67889523D01*
X82097619Y-67841904D01*
X82192857Y-67794285D01*
X82335714Y-67794285D01*
X82430952Y-67841904D01*
X82478571Y-67889523D01*
X82526190Y-67984761D01*
X82526190Y-68365714D01*
D11*
%TO.C,J2*%
X111586000Y-69743000D02*
X117556000Y-69743000D01*
X117556000Y-69743000D02*
X117556000Y-57123000D01*
X117556000Y-57123000D02*
X111586000Y-57123000D01*
X111586000Y-57123000D02*
X111586000Y-69743000D01*
X111596000Y-66433000D02*
X112346000Y-66433000D01*
X112346000Y-66433000D02*
X112346000Y-60433000D01*
X112346000Y-60433000D02*
X111596000Y-60433000D01*
X111596000Y-60433000D02*
X111596000Y-66433000D01*
X111596000Y-69733000D02*
X112346000Y-69733000D01*
X112346000Y-69733000D02*
X112346000Y-67933000D01*
X112346000Y-67933000D02*
X111596000Y-67933000D01*
X111596000Y-67933000D02*
X111596000Y-69733000D01*
X111596000Y-58933000D02*
X112346000Y-58933000D01*
X112346000Y-58933000D02*
X112346000Y-57133000D01*
X112346000Y-57133000D02*
X111596000Y-57133000D01*
X111596000Y-57133000D02*
X111596000Y-58933000D01*
X113846000Y-69733000D02*
X113846000Y-68983000D01*
X113846000Y-68983000D02*
X116796000Y-68983000D01*
X116796000Y-68983000D02*
X116796000Y-63433000D01*
X113846000Y-57133000D02*
X113846000Y-57883000D01*
X113846000Y-57883000D02*
X116796000Y-57883000D01*
X116796000Y-57883000D02*
X116796000Y-63433000D01*
X111296000Y-68783000D02*
X111296000Y-70033000D01*
X111296000Y-70033000D02*
X112546000Y-70033000D01*
%TO.C,J1*%
X83646000Y-71902000D02*
X89616000Y-71902000D01*
X89616000Y-71902000D02*
X89616000Y-54282000D01*
X89616000Y-54282000D02*
X83646000Y-54282000D01*
X83646000Y-54282000D02*
X83646000Y-71902000D01*
X83656000Y-68592000D02*
X84406000Y-68592000D01*
X84406000Y-68592000D02*
X84406000Y-57592000D01*
X84406000Y-57592000D02*
X83656000Y-57592000D01*
X83656000Y-57592000D02*
X83656000Y-68592000D01*
X83656000Y-71892000D02*
X84406000Y-71892000D01*
X84406000Y-71892000D02*
X84406000Y-70092000D01*
X84406000Y-70092000D02*
X83656000Y-70092000D01*
X83656000Y-70092000D02*
X83656000Y-71892000D01*
X83656000Y-56092000D02*
X84406000Y-56092000D01*
X84406000Y-56092000D02*
X84406000Y-54292000D01*
X84406000Y-54292000D02*
X83656000Y-54292000D01*
X83656000Y-54292000D02*
X83656000Y-56092000D01*
X85906000Y-71892000D02*
X85906000Y-71142000D01*
X85906000Y-71142000D02*
X88856000Y-71142000D01*
X88856000Y-71142000D02*
X88856000Y-63092000D01*
X85906000Y-54292000D02*
X85906000Y-55042000D01*
X85906000Y-55042000D02*
X88856000Y-55042000D01*
X88856000Y-55042000D02*
X88856000Y-63092000D01*
X83356000Y-70942000D02*
X83356000Y-72192000D01*
X83356000Y-72192000D02*
X84606000Y-72192000D01*
%TO.C,D3*%
X95504000Y-59720000D02*
X98806000Y-59720000D01*
X98806000Y-59720000D02*
X98806000Y-54620000D01*
X98806000Y-54610000D02*
X95504000Y-54620000D01*
X95504000Y-54610000D02*
X95504000Y-59710000D01*
D12*
G36*
X98044000Y-54610000D02*
G01*
X98298000Y-54610000D01*
X98298000Y-59690000D01*
X98044000Y-59690000D01*
X98044000Y-54610000D01*
G37*
X98044000Y-54610000D02*
X98298000Y-54610000D01*
X98298000Y-59690000D01*
X98044000Y-59690000D01*
X98044000Y-54610000D01*
D11*
%TO.C,D2*%
X95504000Y-65689000D02*
X98806000Y-65689000D01*
X98806000Y-65689000D02*
X98806000Y-60589000D01*
X98806000Y-60579000D02*
X95504000Y-60589000D01*
X95504000Y-60579000D02*
X95504000Y-65679000D01*
D12*
G36*
X98044000Y-60579000D02*
G01*
X98298000Y-60579000D01*
X98298000Y-65659000D01*
X98044000Y-65659000D01*
X98044000Y-60579000D01*
G37*
X98044000Y-60579000D02*
X98298000Y-60579000D01*
X98298000Y-65659000D01*
X98044000Y-65659000D01*
X98044000Y-60579000D01*
D11*
%TO.C,D1*%
X95504000Y-71658000D02*
X98806000Y-71658000D01*
X98806000Y-71658000D02*
X98806000Y-66558000D01*
X98806000Y-66548000D02*
X95504000Y-66558000D01*
X95504000Y-66548000D02*
X95504000Y-71648000D01*
D12*
G36*
X98044000Y-66548000D02*
G01*
X98298000Y-66548000D01*
X98298000Y-71628000D01*
X98044000Y-71628000D01*
X98044000Y-66548000D01*
G37*
X98044000Y-66548000D02*
X98298000Y-66548000D01*
X98298000Y-71628000D01*
X98044000Y-71628000D01*
X98044000Y-66548000D01*
D11*
%TO.C,C3*%
X108284000Y-57039000D02*
G75*
G03*
X108284000Y-57039000I-2620000J0D01*
G01*
X106704000Y-57039000D02*
X108244000Y-57039000D01*
X103084000Y-57039000D02*
X104624000Y-57039000D01*
X106704000Y-56999000D02*
X108244000Y-56999000D01*
X103084000Y-56999000D02*
X104624000Y-56999000D01*
X103085000Y-56959000D02*
X104624000Y-56959000D01*
X106704000Y-56959000D02*
X108243000Y-56959000D01*
X103086000Y-56919000D02*
X104624000Y-56919000D01*
X106704000Y-56919000D02*
X108242000Y-56919000D01*
X103088000Y-56879000D02*
X104624000Y-56879000D01*
X106704000Y-56879000D02*
X108240000Y-56879000D01*
X103091000Y-56839000D02*
X104624000Y-56839000D01*
X106704000Y-56839000D02*
X108237000Y-56839000D01*
X103095000Y-56799000D02*
X104624000Y-56799000D01*
X106704000Y-56799000D02*
X108233000Y-56799000D01*
X103099000Y-56759000D02*
X104624000Y-56759000D01*
X106704000Y-56759000D02*
X108229000Y-56759000D01*
X103103000Y-56719000D02*
X104624000Y-56719000D01*
X106704000Y-56719000D02*
X108225000Y-56719000D01*
X103108000Y-56679000D02*
X104624000Y-56679000D01*
X106704000Y-56679000D02*
X108220000Y-56679000D01*
X103114000Y-56639000D02*
X104624000Y-56639000D01*
X106704000Y-56639000D02*
X108214000Y-56639000D01*
X103121000Y-56599000D02*
X104624000Y-56599000D01*
X106704000Y-56599000D02*
X108207000Y-56599000D01*
X103128000Y-56559000D02*
X104624000Y-56559000D01*
X106704000Y-56559000D02*
X108200000Y-56559000D01*
X103136000Y-56519000D02*
X104624000Y-56519000D01*
X106704000Y-56519000D02*
X108192000Y-56519000D01*
X103144000Y-56479000D02*
X104624000Y-56479000D01*
X106704000Y-56479000D02*
X108184000Y-56479000D01*
X103153000Y-56439000D02*
X104624000Y-56439000D01*
X106704000Y-56439000D02*
X108175000Y-56439000D01*
X103163000Y-56399000D02*
X104624000Y-56399000D01*
X106704000Y-56399000D02*
X108165000Y-56399000D01*
X103173000Y-56359000D02*
X104624000Y-56359000D01*
X106704000Y-56359000D02*
X108155000Y-56359000D01*
X103184000Y-56318000D02*
X104624000Y-56318000D01*
X106704000Y-56318000D02*
X108144000Y-56318000D01*
X103196000Y-56278000D02*
X104624000Y-56278000D01*
X106704000Y-56278000D02*
X108132000Y-56278000D01*
X103209000Y-56238000D02*
X104624000Y-56238000D01*
X106704000Y-56238000D02*
X108119000Y-56238000D01*
X103222000Y-56198000D02*
X104624000Y-56198000D01*
X106704000Y-56198000D02*
X108106000Y-56198000D01*
X103236000Y-56158000D02*
X104624000Y-56158000D01*
X106704000Y-56158000D02*
X108092000Y-56158000D01*
X103250000Y-56118000D02*
X104624000Y-56118000D01*
X106704000Y-56118000D02*
X108078000Y-56118000D01*
X103266000Y-56078000D02*
X104624000Y-56078000D01*
X106704000Y-56078000D02*
X108062000Y-56078000D01*
X103282000Y-56038000D02*
X104624000Y-56038000D01*
X106704000Y-56038000D02*
X108046000Y-56038000D01*
X103299000Y-55998000D02*
X104624000Y-55998000D01*
X106704000Y-55998000D02*
X108029000Y-55998000D01*
X103316000Y-55958000D02*
X104624000Y-55958000D01*
X106704000Y-55958000D02*
X108012000Y-55958000D01*
X103335000Y-55918000D02*
X104624000Y-55918000D01*
X106704000Y-55918000D02*
X107993000Y-55918000D01*
X103354000Y-55878000D02*
X104624000Y-55878000D01*
X106704000Y-55878000D02*
X107974000Y-55878000D01*
X103374000Y-55838000D02*
X104624000Y-55838000D01*
X106704000Y-55838000D02*
X107954000Y-55838000D01*
X103396000Y-55798000D02*
X104624000Y-55798000D01*
X106704000Y-55798000D02*
X107932000Y-55798000D01*
X103417000Y-55758000D02*
X104624000Y-55758000D01*
X106704000Y-55758000D02*
X107911000Y-55758000D01*
X103440000Y-55718000D02*
X104624000Y-55718000D01*
X106704000Y-55718000D02*
X107888000Y-55718000D01*
X103464000Y-55678000D02*
X104624000Y-55678000D01*
X106704000Y-55678000D02*
X107864000Y-55678000D01*
X103489000Y-55638000D02*
X104624000Y-55638000D01*
X106704000Y-55638000D02*
X107839000Y-55638000D01*
X103515000Y-55598000D02*
X104624000Y-55598000D01*
X106704000Y-55598000D02*
X107813000Y-55598000D01*
X103542000Y-55558000D02*
X104624000Y-55558000D01*
X106704000Y-55558000D02*
X107786000Y-55558000D01*
X103569000Y-55518000D02*
X104624000Y-55518000D01*
X106704000Y-55518000D02*
X107759000Y-55518000D01*
X103599000Y-55478000D02*
X104624000Y-55478000D01*
X106704000Y-55478000D02*
X107729000Y-55478000D01*
X103629000Y-55438000D02*
X104624000Y-55438000D01*
X106704000Y-55438000D02*
X107699000Y-55438000D01*
X103660000Y-55398000D02*
X104624000Y-55398000D01*
X106704000Y-55398000D02*
X107668000Y-55398000D01*
X103693000Y-55358000D02*
X104624000Y-55358000D01*
X106704000Y-55358000D02*
X107635000Y-55358000D01*
X103727000Y-55318000D02*
X104624000Y-55318000D01*
X106704000Y-55318000D02*
X107601000Y-55318000D01*
X103763000Y-55278000D02*
X104624000Y-55278000D01*
X106704000Y-55278000D02*
X107565000Y-55278000D01*
X103800000Y-55238000D02*
X104624000Y-55238000D01*
X106704000Y-55238000D02*
X107528000Y-55238000D01*
X103838000Y-55198000D02*
X104624000Y-55198000D01*
X106704000Y-55198000D02*
X107490000Y-55198000D01*
X103879000Y-55158000D02*
X104624000Y-55158000D01*
X106704000Y-55158000D02*
X107449000Y-55158000D01*
X103921000Y-55118000D02*
X104624000Y-55118000D01*
X106704000Y-55118000D02*
X107407000Y-55118000D01*
X103965000Y-55078000D02*
X104624000Y-55078000D01*
X106704000Y-55078000D02*
X107363000Y-55078000D01*
X104011000Y-55038000D02*
X104624000Y-55038000D01*
X106704000Y-55038000D02*
X107317000Y-55038000D01*
X104059000Y-54998000D02*
X107269000Y-54998000D01*
X104110000Y-54958000D02*
X107218000Y-54958000D01*
X104164000Y-54918000D02*
X107164000Y-54918000D01*
X104221000Y-54878000D02*
X107107000Y-54878000D01*
X104281000Y-54838000D02*
X107047000Y-54838000D01*
X104345000Y-54798000D02*
X106983000Y-54798000D01*
X104413000Y-54758000D02*
X106915000Y-54758000D01*
X104486000Y-54718000D02*
X106842000Y-54718000D01*
X104566000Y-54678000D02*
X106762000Y-54678000D01*
X104653000Y-54638000D02*
X106675000Y-54638000D01*
X104749000Y-54598000D02*
X106579000Y-54598000D01*
X104859000Y-54558000D02*
X106469000Y-54558000D01*
X104987000Y-54518000D02*
X106341000Y-54518000D01*
X105146000Y-54478000D02*
X106182000Y-54478000D01*
X105380000Y-54438000D02*
X105948000Y-54438000D01*
X104189000Y-59843775D02*
X104189000Y-59343775D01*
X103939000Y-59593775D02*
X104439000Y-59593775D01*
%TO.C,C2*%
X108284000Y-63262000D02*
G75*
G03*
X108284000Y-63262000I-2620000J0D01*
G01*
X106704000Y-63262000D02*
X108244000Y-63262000D01*
X103084000Y-63262000D02*
X104624000Y-63262000D01*
X106704000Y-63222000D02*
X108244000Y-63222000D01*
X103084000Y-63222000D02*
X104624000Y-63222000D01*
X103085000Y-63182000D02*
X104624000Y-63182000D01*
X106704000Y-63182000D02*
X108243000Y-63182000D01*
X103086000Y-63142000D02*
X104624000Y-63142000D01*
X106704000Y-63142000D02*
X108242000Y-63142000D01*
X103088000Y-63102000D02*
X104624000Y-63102000D01*
X106704000Y-63102000D02*
X108240000Y-63102000D01*
X103091000Y-63062000D02*
X104624000Y-63062000D01*
X106704000Y-63062000D02*
X108237000Y-63062000D01*
X103095000Y-63022000D02*
X104624000Y-63022000D01*
X106704000Y-63022000D02*
X108233000Y-63022000D01*
X103099000Y-62982000D02*
X104624000Y-62982000D01*
X106704000Y-62982000D02*
X108229000Y-62982000D01*
X103103000Y-62942000D02*
X104624000Y-62942000D01*
X106704000Y-62942000D02*
X108225000Y-62942000D01*
X103108000Y-62902000D02*
X104624000Y-62902000D01*
X106704000Y-62902000D02*
X108220000Y-62902000D01*
X103114000Y-62862000D02*
X104624000Y-62862000D01*
X106704000Y-62862000D02*
X108214000Y-62862000D01*
X103121000Y-62822000D02*
X104624000Y-62822000D01*
X106704000Y-62822000D02*
X108207000Y-62822000D01*
X103128000Y-62782000D02*
X104624000Y-62782000D01*
X106704000Y-62782000D02*
X108200000Y-62782000D01*
X103136000Y-62742000D02*
X104624000Y-62742000D01*
X106704000Y-62742000D02*
X108192000Y-62742000D01*
X103144000Y-62702000D02*
X104624000Y-62702000D01*
X106704000Y-62702000D02*
X108184000Y-62702000D01*
X103153000Y-62662000D02*
X104624000Y-62662000D01*
X106704000Y-62662000D02*
X108175000Y-62662000D01*
X103163000Y-62622000D02*
X104624000Y-62622000D01*
X106704000Y-62622000D02*
X108165000Y-62622000D01*
X103173000Y-62582000D02*
X104624000Y-62582000D01*
X106704000Y-62582000D02*
X108155000Y-62582000D01*
X103184000Y-62541000D02*
X104624000Y-62541000D01*
X106704000Y-62541000D02*
X108144000Y-62541000D01*
X103196000Y-62501000D02*
X104624000Y-62501000D01*
X106704000Y-62501000D02*
X108132000Y-62501000D01*
X103209000Y-62461000D02*
X104624000Y-62461000D01*
X106704000Y-62461000D02*
X108119000Y-62461000D01*
X103222000Y-62421000D02*
X104624000Y-62421000D01*
X106704000Y-62421000D02*
X108106000Y-62421000D01*
X103236000Y-62381000D02*
X104624000Y-62381000D01*
X106704000Y-62381000D02*
X108092000Y-62381000D01*
X103250000Y-62341000D02*
X104624000Y-62341000D01*
X106704000Y-62341000D02*
X108078000Y-62341000D01*
X103266000Y-62301000D02*
X104624000Y-62301000D01*
X106704000Y-62301000D02*
X108062000Y-62301000D01*
X103282000Y-62261000D02*
X104624000Y-62261000D01*
X106704000Y-62261000D02*
X108046000Y-62261000D01*
X103299000Y-62221000D02*
X104624000Y-62221000D01*
X106704000Y-62221000D02*
X108029000Y-62221000D01*
X103316000Y-62181000D02*
X104624000Y-62181000D01*
X106704000Y-62181000D02*
X108012000Y-62181000D01*
X103335000Y-62141000D02*
X104624000Y-62141000D01*
X106704000Y-62141000D02*
X107993000Y-62141000D01*
X103354000Y-62101000D02*
X104624000Y-62101000D01*
X106704000Y-62101000D02*
X107974000Y-62101000D01*
X103374000Y-62061000D02*
X104624000Y-62061000D01*
X106704000Y-62061000D02*
X107954000Y-62061000D01*
X103396000Y-62021000D02*
X104624000Y-62021000D01*
X106704000Y-62021000D02*
X107932000Y-62021000D01*
X103417000Y-61981000D02*
X104624000Y-61981000D01*
X106704000Y-61981000D02*
X107911000Y-61981000D01*
X103440000Y-61941000D02*
X104624000Y-61941000D01*
X106704000Y-61941000D02*
X107888000Y-61941000D01*
X103464000Y-61901000D02*
X104624000Y-61901000D01*
X106704000Y-61901000D02*
X107864000Y-61901000D01*
X103489000Y-61861000D02*
X104624000Y-61861000D01*
X106704000Y-61861000D02*
X107839000Y-61861000D01*
X103515000Y-61821000D02*
X104624000Y-61821000D01*
X106704000Y-61821000D02*
X107813000Y-61821000D01*
X103542000Y-61781000D02*
X104624000Y-61781000D01*
X106704000Y-61781000D02*
X107786000Y-61781000D01*
X103569000Y-61741000D02*
X104624000Y-61741000D01*
X106704000Y-61741000D02*
X107759000Y-61741000D01*
X103599000Y-61701000D02*
X104624000Y-61701000D01*
X106704000Y-61701000D02*
X107729000Y-61701000D01*
X103629000Y-61661000D02*
X104624000Y-61661000D01*
X106704000Y-61661000D02*
X107699000Y-61661000D01*
X103660000Y-61621000D02*
X104624000Y-61621000D01*
X106704000Y-61621000D02*
X107668000Y-61621000D01*
X103693000Y-61581000D02*
X104624000Y-61581000D01*
X106704000Y-61581000D02*
X107635000Y-61581000D01*
X103727000Y-61541000D02*
X104624000Y-61541000D01*
X106704000Y-61541000D02*
X107601000Y-61541000D01*
X103763000Y-61501000D02*
X104624000Y-61501000D01*
X106704000Y-61501000D02*
X107565000Y-61501000D01*
X103800000Y-61461000D02*
X104624000Y-61461000D01*
X106704000Y-61461000D02*
X107528000Y-61461000D01*
X103838000Y-61421000D02*
X104624000Y-61421000D01*
X106704000Y-61421000D02*
X107490000Y-61421000D01*
X103879000Y-61381000D02*
X104624000Y-61381000D01*
X106704000Y-61381000D02*
X107449000Y-61381000D01*
X103921000Y-61341000D02*
X104624000Y-61341000D01*
X106704000Y-61341000D02*
X107407000Y-61341000D01*
X103965000Y-61301000D02*
X104624000Y-61301000D01*
X106704000Y-61301000D02*
X107363000Y-61301000D01*
X104011000Y-61261000D02*
X104624000Y-61261000D01*
X106704000Y-61261000D02*
X107317000Y-61261000D01*
X104059000Y-61221000D02*
X107269000Y-61221000D01*
X104110000Y-61181000D02*
X107218000Y-61181000D01*
X104164000Y-61141000D02*
X107164000Y-61141000D01*
X104221000Y-61101000D02*
X107107000Y-61101000D01*
X104281000Y-61061000D02*
X107047000Y-61061000D01*
X104345000Y-61021000D02*
X106983000Y-61021000D01*
X104413000Y-60981000D02*
X106915000Y-60981000D01*
X104486000Y-60941000D02*
X106842000Y-60941000D01*
X104566000Y-60901000D02*
X106762000Y-60901000D01*
X104653000Y-60861000D02*
X106675000Y-60861000D01*
X104749000Y-60821000D02*
X106579000Y-60821000D01*
X104859000Y-60781000D02*
X106469000Y-60781000D01*
X104987000Y-60741000D02*
X106341000Y-60741000D01*
X105146000Y-60701000D02*
X106182000Y-60701000D01*
X105380000Y-60661000D02*
X105948000Y-60661000D01*
X104189000Y-66066775D02*
X104189000Y-65566775D01*
X103939000Y-65816775D02*
X104439000Y-65816775D01*
%TO.C,C1*%
X108284000Y-69485000D02*
G75*
G03*
X108284000Y-69485000I-2620000J0D01*
G01*
X106704000Y-69485000D02*
X108244000Y-69485000D01*
X103084000Y-69485000D02*
X104624000Y-69485000D01*
X106704000Y-69445000D02*
X108244000Y-69445000D01*
X103084000Y-69445000D02*
X104624000Y-69445000D01*
X103085000Y-69405000D02*
X104624000Y-69405000D01*
X106704000Y-69405000D02*
X108243000Y-69405000D01*
X103086000Y-69365000D02*
X104624000Y-69365000D01*
X106704000Y-69365000D02*
X108242000Y-69365000D01*
X103088000Y-69325000D02*
X104624000Y-69325000D01*
X106704000Y-69325000D02*
X108240000Y-69325000D01*
X103091000Y-69285000D02*
X104624000Y-69285000D01*
X106704000Y-69285000D02*
X108237000Y-69285000D01*
X103095000Y-69245000D02*
X104624000Y-69245000D01*
X106704000Y-69245000D02*
X108233000Y-69245000D01*
X103099000Y-69205000D02*
X104624000Y-69205000D01*
X106704000Y-69205000D02*
X108229000Y-69205000D01*
X103103000Y-69165000D02*
X104624000Y-69165000D01*
X106704000Y-69165000D02*
X108225000Y-69165000D01*
X103108000Y-69125000D02*
X104624000Y-69125000D01*
X106704000Y-69125000D02*
X108220000Y-69125000D01*
X103114000Y-69085000D02*
X104624000Y-69085000D01*
X106704000Y-69085000D02*
X108214000Y-69085000D01*
X103121000Y-69045000D02*
X104624000Y-69045000D01*
X106704000Y-69045000D02*
X108207000Y-69045000D01*
X103128000Y-69005000D02*
X104624000Y-69005000D01*
X106704000Y-69005000D02*
X108200000Y-69005000D01*
X103136000Y-68965000D02*
X104624000Y-68965000D01*
X106704000Y-68965000D02*
X108192000Y-68965000D01*
X103144000Y-68925000D02*
X104624000Y-68925000D01*
X106704000Y-68925000D02*
X108184000Y-68925000D01*
X103153000Y-68885000D02*
X104624000Y-68885000D01*
X106704000Y-68885000D02*
X108175000Y-68885000D01*
X103163000Y-68845000D02*
X104624000Y-68845000D01*
X106704000Y-68845000D02*
X108165000Y-68845000D01*
X103173000Y-68805000D02*
X104624000Y-68805000D01*
X106704000Y-68805000D02*
X108155000Y-68805000D01*
X103184000Y-68764000D02*
X104624000Y-68764000D01*
X106704000Y-68764000D02*
X108144000Y-68764000D01*
X103196000Y-68724000D02*
X104624000Y-68724000D01*
X106704000Y-68724000D02*
X108132000Y-68724000D01*
X103209000Y-68684000D02*
X104624000Y-68684000D01*
X106704000Y-68684000D02*
X108119000Y-68684000D01*
X103222000Y-68644000D02*
X104624000Y-68644000D01*
X106704000Y-68644000D02*
X108106000Y-68644000D01*
X103236000Y-68604000D02*
X104624000Y-68604000D01*
X106704000Y-68604000D02*
X108092000Y-68604000D01*
X103250000Y-68564000D02*
X104624000Y-68564000D01*
X106704000Y-68564000D02*
X108078000Y-68564000D01*
X103266000Y-68524000D02*
X104624000Y-68524000D01*
X106704000Y-68524000D02*
X108062000Y-68524000D01*
X103282000Y-68484000D02*
X104624000Y-68484000D01*
X106704000Y-68484000D02*
X108046000Y-68484000D01*
X103299000Y-68444000D02*
X104624000Y-68444000D01*
X106704000Y-68444000D02*
X108029000Y-68444000D01*
X103316000Y-68404000D02*
X104624000Y-68404000D01*
X106704000Y-68404000D02*
X108012000Y-68404000D01*
X103335000Y-68364000D02*
X104624000Y-68364000D01*
X106704000Y-68364000D02*
X107993000Y-68364000D01*
X103354000Y-68324000D02*
X104624000Y-68324000D01*
X106704000Y-68324000D02*
X107974000Y-68324000D01*
X103374000Y-68284000D02*
X104624000Y-68284000D01*
X106704000Y-68284000D02*
X107954000Y-68284000D01*
X103396000Y-68244000D02*
X104624000Y-68244000D01*
X106704000Y-68244000D02*
X107932000Y-68244000D01*
X103417000Y-68204000D02*
X104624000Y-68204000D01*
X106704000Y-68204000D02*
X107911000Y-68204000D01*
X103440000Y-68164000D02*
X104624000Y-68164000D01*
X106704000Y-68164000D02*
X107888000Y-68164000D01*
X103464000Y-68124000D02*
X104624000Y-68124000D01*
X106704000Y-68124000D02*
X107864000Y-68124000D01*
X103489000Y-68084000D02*
X104624000Y-68084000D01*
X106704000Y-68084000D02*
X107839000Y-68084000D01*
X103515000Y-68044000D02*
X104624000Y-68044000D01*
X106704000Y-68044000D02*
X107813000Y-68044000D01*
X103542000Y-68004000D02*
X104624000Y-68004000D01*
X106704000Y-68004000D02*
X107786000Y-68004000D01*
X103569000Y-67964000D02*
X104624000Y-67964000D01*
X106704000Y-67964000D02*
X107759000Y-67964000D01*
X103599000Y-67924000D02*
X104624000Y-67924000D01*
X106704000Y-67924000D02*
X107729000Y-67924000D01*
X103629000Y-67884000D02*
X104624000Y-67884000D01*
X106704000Y-67884000D02*
X107699000Y-67884000D01*
X103660000Y-67844000D02*
X104624000Y-67844000D01*
X106704000Y-67844000D02*
X107668000Y-67844000D01*
X103693000Y-67804000D02*
X104624000Y-67804000D01*
X106704000Y-67804000D02*
X107635000Y-67804000D01*
X103727000Y-67764000D02*
X104624000Y-67764000D01*
X106704000Y-67764000D02*
X107601000Y-67764000D01*
X103763000Y-67724000D02*
X104624000Y-67724000D01*
X106704000Y-67724000D02*
X107565000Y-67724000D01*
X103800000Y-67684000D02*
X104624000Y-67684000D01*
X106704000Y-67684000D02*
X107528000Y-67684000D01*
X103838000Y-67644000D02*
X104624000Y-67644000D01*
X106704000Y-67644000D02*
X107490000Y-67644000D01*
X103879000Y-67604000D02*
X104624000Y-67604000D01*
X106704000Y-67604000D02*
X107449000Y-67604000D01*
X103921000Y-67564000D02*
X104624000Y-67564000D01*
X106704000Y-67564000D02*
X107407000Y-67564000D01*
X103965000Y-67524000D02*
X104624000Y-67524000D01*
X106704000Y-67524000D02*
X107363000Y-67524000D01*
X104011000Y-67484000D02*
X104624000Y-67484000D01*
X106704000Y-67484000D02*
X107317000Y-67484000D01*
X104059000Y-67444000D02*
X107269000Y-67444000D01*
X104110000Y-67404000D02*
X107218000Y-67404000D01*
X104164000Y-67364000D02*
X107164000Y-67364000D01*
X104221000Y-67324000D02*
X107107000Y-67324000D01*
X104281000Y-67284000D02*
X107047000Y-67284000D01*
X104345000Y-67244000D02*
X106983000Y-67244000D01*
X104413000Y-67204000D02*
X106915000Y-67204000D01*
X104486000Y-67164000D02*
X106842000Y-67164000D01*
X104566000Y-67124000D02*
X106762000Y-67124000D01*
X104653000Y-67084000D02*
X106675000Y-67084000D01*
X104749000Y-67044000D02*
X106579000Y-67044000D01*
X104859000Y-67004000D02*
X106469000Y-67004000D01*
X104987000Y-66964000D02*
X106341000Y-66964000D01*
X105146000Y-66924000D02*
X106182000Y-66924000D01*
X105380000Y-66884000D02*
X105948000Y-66884000D01*
X104189000Y-72289775D02*
X104189000Y-71789775D01*
X103939000Y-72039775D02*
X104439000Y-72039775D01*
%TO.C,J2*%
D10*
X121451666Y-65214047D02*
X121451666Y-64737857D01*
X121737380Y-65309285D02*
X120737380Y-64975952D01*
X121737380Y-64642619D01*
X120689761Y-63595000D02*
X121975476Y-64452142D01*
X121737380Y-63261666D02*
X120737380Y-63261666D01*
X120737380Y-63023571D01*
X120785000Y-62880714D01*
X120880238Y-62785476D01*
X120975476Y-62737857D01*
X121165952Y-62690238D01*
X121308809Y-62690238D01*
X121499285Y-62737857D01*
X121594523Y-62785476D01*
X121689761Y-62880714D01*
X121737380Y-63023571D01*
X121737380Y-63261666D01*
X121642142Y-60928333D02*
X121689761Y-60975952D01*
X121737380Y-61118809D01*
X121737380Y-61214047D01*
X121689761Y-61356904D01*
X121594523Y-61452142D01*
X121499285Y-61499761D01*
X121308809Y-61547380D01*
X121165952Y-61547380D01*
X120975476Y-61499761D01*
X120880238Y-61452142D01*
X120785000Y-61356904D01*
X120737380Y-61214047D01*
X120737380Y-61118809D01*
X120785000Y-60975952D01*
X120832619Y-60928333D01*
X120737380Y-60309285D02*
X120737380Y-60118809D01*
X120785000Y-60023571D01*
X120880238Y-59928333D01*
X121070714Y-59880714D01*
X121404047Y-59880714D01*
X121594523Y-59928333D01*
X121689761Y-60023571D01*
X121737380Y-60118809D01*
X121737380Y-60309285D01*
X121689761Y-60404523D01*
X121594523Y-60499761D01*
X121404047Y-60547380D01*
X121070714Y-60547380D01*
X120880238Y-60499761D01*
X120785000Y-60404523D01*
X120737380Y-60309285D01*
X121737380Y-59452142D02*
X120737380Y-59452142D01*
X121737380Y-58880714D01*
X120737380Y-58880714D01*
X120737380Y-58547380D02*
X121737380Y-58214047D01*
X120737380Y-57880714D01*
X120737380Y-67643333D02*
X121451666Y-67643333D01*
X121594523Y-67690952D01*
X121689761Y-67786190D01*
X121737380Y-67929047D01*
X121737380Y-68024285D01*
X120832619Y-67214761D02*
X120785000Y-67167142D01*
X120737380Y-67071904D01*
X120737380Y-66833809D01*
X120785000Y-66738571D01*
X120832619Y-66690952D01*
X120927857Y-66643333D01*
X121023095Y-66643333D01*
X121165952Y-66690952D01*
X121737380Y-67262380D01*
X121737380Y-66643333D01*
%TO.C,J1*%
X78827380Y-65738333D02*
X79541666Y-65738333D01*
X79684523Y-65785952D01*
X79779761Y-65881190D01*
X79827380Y-66024047D01*
X79827380Y-66119285D01*
X79827380Y-64738333D02*
X79827380Y-65309761D01*
X79827380Y-65024047D02*
X78827380Y-65024047D01*
X78970238Y-65119285D01*
X79065476Y-65214523D01*
X79113095Y-65309761D01*
X79827380Y-63388571D02*
X78827380Y-63388571D01*
X78827380Y-63007619D01*
X78875000Y-62912380D01*
X78922619Y-62864761D01*
X79017857Y-62817142D01*
X79160714Y-62817142D01*
X79255952Y-62864761D01*
X79303571Y-62912380D01*
X79351190Y-63007619D01*
X79351190Y-63388571D01*
X79827380Y-62388571D02*
X78827380Y-62388571D01*
X79303571Y-61912380D02*
X79303571Y-61579047D01*
X79827380Y-61436190D02*
X79827380Y-61912380D01*
X78827380Y-61912380D01*
X78827380Y-61436190D01*
X78827380Y-61102857D02*
X78827380Y-60436190D01*
X79827380Y-61102857D01*
X79827380Y-60436190D01*
X78827380Y-60150476D02*
X78827380Y-59483809D01*
X79827380Y-60150476D01*
X79827380Y-59483809D01*
X78827380Y-58912380D02*
X78827380Y-58721904D01*
X78875000Y-58626666D01*
X78970238Y-58531428D01*
X79160714Y-58483809D01*
X79494047Y-58483809D01*
X79684523Y-58531428D01*
X79779761Y-58626666D01*
X79827380Y-58721904D01*
X79827380Y-58912380D01*
X79779761Y-59007619D01*
X79684523Y-59102857D01*
X79494047Y-59150476D01*
X79160714Y-59150476D01*
X78970238Y-59102857D01*
X78875000Y-59007619D01*
X78827380Y-58912380D01*
%TO.C,D3*%
X93162380Y-58523095D02*
X92162380Y-58523095D01*
X92162380Y-58285000D01*
X92210000Y-58142142D01*
X92305238Y-58046904D01*
X92400476Y-57999285D01*
X92590952Y-57951666D01*
X92733809Y-57951666D01*
X92924285Y-57999285D01*
X93019523Y-58046904D01*
X93114761Y-58142142D01*
X93162380Y-58285000D01*
X93162380Y-58523095D01*
X92162380Y-57618333D02*
X92162380Y-56999285D01*
X92543333Y-57332619D01*
X92543333Y-57189761D01*
X92590952Y-57094523D01*
X92638571Y-57046904D01*
X92733809Y-56999285D01*
X92971904Y-56999285D01*
X93067142Y-57046904D01*
X93114761Y-57094523D01*
X93162380Y-57189761D01*
X93162380Y-57475476D01*
X93114761Y-57570714D01*
X93067142Y-57618333D01*
X95037857Y-54272380D02*
X95037857Y-53272380D01*
X95371190Y-53986666D01*
X95704523Y-53272380D01*
X95704523Y-54272380D01*
X96514047Y-53748571D02*
X96656904Y-53796190D01*
X96704523Y-53843809D01*
X96752142Y-53939047D01*
X96752142Y-54081904D01*
X96704523Y-54177142D01*
X96656904Y-54224761D01*
X96561666Y-54272380D01*
X96180714Y-54272380D01*
X96180714Y-53272380D01*
X96514047Y-53272380D01*
X96609285Y-53320000D01*
X96656904Y-53367619D01*
X96704523Y-53462857D01*
X96704523Y-53558095D01*
X96656904Y-53653333D01*
X96609285Y-53700952D01*
X96514047Y-53748571D01*
X96180714Y-53748571D01*
X97704523Y-54272380D02*
X97133095Y-54272380D01*
X97418809Y-54272380D02*
X97418809Y-53272380D01*
X97323571Y-53415238D01*
X97228333Y-53510476D01*
X97133095Y-53558095D01*
X98323571Y-53272380D02*
X98418809Y-53272380D01*
X98514047Y-53320000D01*
X98561666Y-53367619D01*
X98609285Y-53462857D01*
X98656904Y-53653333D01*
X98656904Y-53891428D01*
X98609285Y-54081904D01*
X98561666Y-54177142D01*
X98514047Y-54224761D01*
X98418809Y-54272380D01*
X98323571Y-54272380D01*
X98228333Y-54224761D01*
X98180714Y-54177142D01*
X98133095Y-54081904D01*
X98085476Y-53891428D01*
X98085476Y-53653333D01*
X98133095Y-53462857D01*
X98180714Y-53367619D01*
X98228333Y-53320000D01*
X98323571Y-53272380D01*
X99085476Y-54272380D02*
X99085476Y-53272380D01*
X99418809Y-53986666D01*
X99752142Y-53272380D01*
X99752142Y-54272380D01*
D13*
X94182452Y-54693333D02*
X94420547Y-54693333D01*
X94134833Y-54836190D02*
X94301500Y-54336190D01*
X94468166Y-54836190D01*
X94920547Y-54788571D02*
X94896738Y-54812380D01*
X94825309Y-54836190D01*
X94777690Y-54836190D01*
X94706261Y-54812380D01*
X94658642Y-54764761D01*
X94634833Y-54717142D01*
X94611023Y-54621904D01*
X94611023Y-54550476D01*
X94634833Y-54455238D01*
X94658642Y-54407619D01*
X94706261Y-54360000D01*
X94777690Y-54336190D01*
X94825309Y-54336190D01*
X94896738Y-54360000D01*
X94920547Y-54383809D01*
X94182452Y-59773333D02*
X94420547Y-59773333D01*
X94134833Y-59916190D02*
X94301500Y-59416190D01*
X94468166Y-59916190D01*
X94920547Y-59868571D02*
X94896738Y-59892380D01*
X94825309Y-59916190D01*
X94777690Y-59916190D01*
X94706261Y-59892380D01*
X94658642Y-59844761D01*
X94634833Y-59797142D01*
X94611023Y-59701904D01*
X94611023Y-59630476D01*
X94634833Y-59535238D01*
X94658642Y-59487619D01*
X94706261Y-59440000D01*
X94777690Y-59416190D01*
X94825309Y-59416190D01*
X94896738Y-59440000D01*
X94920547Y-59463809D01*
D10*
X99314047Y-54935428D02*
X100075952Y-54935428D01*
X99314047Y-59951928D02*
X100075952Y-59951928D01*
X99695000Y-60332880D02*
X99695000Y-59570976D01*
%TO.C,D2*%
X93162380Y-64238095D02*
X92162380Y-64238095D01*
X92162380Y-64000000D01*
X92210000Y-63857142D01*
X92305238Y-63761904D01*
X92400476Y-63714285D01*
X92590952Y-63666666D01*
X92733809Y-63666666D01*
X92924285Y-63714285D01*
X93019523Y-63761904D01*
X93114761Y-63857142D01*
X93162380Y-64000000D01*
X93162380Y-64238095D01*
X92257619Y-63285714D02*
X92210000Y-63238095D01*
X92162380Y-63142857D01*
X92162380Y-62904761D01*
X92210000Y-62809523D01*
X92257619Y-62761904D01*
X92352857Y-62714285D01*
X92448095Y-62714285D01*
X92590952Y-62761904D01*
X93162380Y-63333333D01*
X93162380Y-62714285D01*
D13*
X94182452Y-60662333D02*
X94420547Y-60662333D01*
X94134833Y-60805190D02*
X94301500Y-60305190D01*
X94468166Y-60805190D01*
X94920547Y-60757571D02*
X94896738Y-60781380D01*
X94825309Y-60805190D01*
X94777690Y-60805190D01*
X94706261Y-60781380D01*
X94658642Y-60733761D01*
X94634833Y-60686142D01*
X94611023Y-60590904D01*
X94611023Y-60519476D01*
X94634833Y-60424238D01*
X94658642Y-60376619D01*
X94706261Y-60329000D01*
X94777690Y-60305190D01*
X94825309Y-60305190D01*
X94896738Y-60329000D01*
X94920547Y-60352809D01*
X94182452Y-65742333D02*
X94420547Y-65742333D01*
X94134833Y-65885190D02*
X94301500Y-65385190D01*
X94468166Y-65885190D01*
X94920547Y-65837571D02*
X94896738Y-65861380D01*
X94825309Y-65885190D01*
X94777690Y-65885190D01*
X94706261Y-65861380D01*
X94658642Y-65813761D01*
X94634833Y-65766142D01*
X94611023Y-65670904D01*
X94611023Y-65599476D01*
X94634833Y-65504238D01*
X94658642Y-65456619D01*
X94706261Y-65409000D01*
X94777690Y-65385190D01*
X94825309Y-65385190D01*
X94896738Y-65409000D01*
X94920547Y-65432809D01*
D10*
X99314047Y-60904428D02*
X100075952Y-60904428D01*
X99314047Y-65920928D02*
X100075952Y-65920928D01*
X99695000Y-66301880D02*
X99695000Y-65539976D01*
%TO.C,D1*%
X93162380Y-69953095D02*
X92162380Y-69953095D01*
X92162380Y-69715000D01*
X92210000Y-69572142D01*
X92305238Y-69476904D01*
X92400476Y-69429285D01*
X92590952Y-69381666D01*
X92733809Y-69381666D01*
X92924285Y-69429285D01*
X93019523Y-69476904D01*
X93114761Y-69572142D01*
X93162380Y-69715000D01*
X93162380Y-69953095D01*
X93162380Y-68429285D02*
X93162380Y-69000714D01*
X93162380Y-68715000D02*
X92162380Y-68715000D01*
X92305238Y-68810238D01*
X92400476Y-68905476D01*
X92448095Y-69000714D01*
D13*
X94182452Y-66631333D02*
X94420547Y-66631333D01*
X94134833Y-66774190D02*
X94301500Y-66274190D01*
X94468166Y-66774190D01*
X94920547Y-66726571D02*
X94896738Y-66750380D01*
X94825309Y-66774190D01*
X94777690Y-66774190D01*
X94706261Y-66750380D01*
X94658642Y-66702761D01*
X94634833Y-66655142D01*
X94611023Y-66559904D01*
X94611023Y-66488476D01*
X94634833Y-66393238D01*
X94658642Y-66345619D01*
X94706261Y-66298000D01*
X94777690Y-66274190D01*
X94825309Y-66274190D01*
X94896738Y-66298000D01*
X94920547Y-66321809D01*
X94182452Y-71711333D02*
X94420547Y-71711333D01*
X94134833Y-71854190D02*
X94301500Y-71354190D01*
X94468166Y-71854190D01*
X94920547Y-71806571D02*
X94896738Y-71830380D01*
X94825309Y-71854190D01*
X94777690Y-71854190D01*
X94706261Y-71830380D01*
X94658642Y-71782761D01*
X94634833Y-71735142D01*
X94611023Y-71639904D01*
X94611023Y-71568476D01*
X94634833Y-71473238D01*
X94658642Y-71425619D01*
X94706261Y-71378000D01*
X94777690Y-71354190D01*
X94825309Y-71354190D01*
X94896738Y-71378000D01*
X94920547Y-71401809D01*
D10*
X99314047Y-66873428D02*
X100075952Y-66873428D01*
X99314047Y-71889928D02*
X100075952Y-71889928D01*
X99695000Y-72270880D02*
X99695000Y-71508976D01*
%TO.C,C3*%
X102271142Y-57205666D02*
X102318761Y-57253285D01*
X102366380Y-57396142D01*
X102366380Y-57491380D01*
X102318761Y-57634238D01*
X102223523Y-57729476D01*
X102128285Y-57777095D01*
X101937809Y-57824714D01*
X101794952Y-57824714D01*
X101604476Y-57777095D01*
X101509238Y-57729476D01*
X101414000Y-57634238D01*
X101366380Y-57491380D01*
X101366380Y-57396142D01*
X101414000Y-57253285D01*
X101461619Y-57205666D01*
X101366380Y-56872333D02*
X101366380Y-56253285D01*
X101747333Y-56586619D01*
X101747333Y-56443761D01*
X101794952Y-56348523D01*
X101842571Y-56300904D01*
X101937809Y-56253285D01*
X102175904Y-56253285D01*
X102271142Y-56300904D01*
X102318761Y-56348523D01*
X102366380Y-56443761D01*
X102366380Y-56729476D01*
X102318761Y-56824714D01*
X102271142Y-56872333D01*
X103068809Y-53792380D02*
X102497380Y-53792380D01*
X102783095Y-53792380D02*
X102783095Y-52792380D01*
X102687857Y-52935238D01*
X102592619Y-53030476D01*
X102497380Y-53078095D01*
X103687857Y-52792380D02*
X103783095Y-52792380D01*
X103878333Y-52840000D01*
X103925952Y-52887619D01*
X103973571Y-52982857D01*
X104021190Y-53173333D01*
X104021190Y-53411428D01*
X103973571Y-53601904D01*
X103925952Y-53697142D01*
X103878333Y-53744761D01*
X103783095Y-53792380D01*
X103687857Y-53792380D01*
X103592619Y-53744761D01*
X103545000Y-53697142D01*
X103497380Y-53601904D01*
X103449761Y-53411428D01*
X103449761Y-53173333D01*
X103497380Y-52982857D01*
X103545000Y-52887619D01*
X103592619Y-52840000D01*
X103687857Y-52792380D01*
X104878333Y-53125714D02*
X104878333Y-53792380D01*
X104449761Y-53125714D02*
X104449761Y-53649523D01*
X104497380Y-53744761D01*
X104592619Y-53792380D01*
X104735476Y-53792380D01*
X104830714Y-53744761D01*
X104878333Y-53697142D01*
X105687857Y-53268571D02*
X105354523Y-53268571D01*
X105354523Y-53792380D02*
X105354523Y-52792380D01*
X105830714Y-52792380D01*
X106925952Y-52744761D02*
X106068809Y-54030476D01*
X107735476Y-52792380D02*
X107259285Y-52792380D01*
X107211666Y-53268571D01*
X107259285Y-53220952D01*
X107354523Y-53173333D01*
X107592619Y-53173333D01*
X107687857Y-53220952D01*
X107735476Y-53268571D01*
X107783095Y-53363809D01*
X107783095Y-53601904D01*
X107735476Y-53697142D01*
X107687857Y-53744761D01*
X107592619Y-53792380D01*
X107354523Y-53792380D01*
X107259285Y-53744761D01*
X107211666Y-53697142D01*
X108402142Y-52792380D02*
X108497380Y-52792380D01*
X108592619Y-52840000D01*
X108640238Y-52887619D01*
X108687857Y-52982857D01*
X108735476Y-53173333D01*
X108735476Y-53411428D01*
X108687857Y-53601904D01*
X108640238Y-53697142D01*
X108592619Y-53744761D01*
X108497380Y-53792380D01*
X108402142Y-53792380D01*
X108306904Y-53744761D01*
X108259285Y-53697142D01*
X108211666Y-53601904D01*
X108164047Y-53411428D01*
X108164047Y-53173333D01*
X108211666Y-52982857D01*
X108259285Y-52887619D01*
X108306904Y-52840000D01*
X108402142Y-52792380D01*
X109021190Y-52792380D02*
X109354523Y-53792380D01*
X109687857Y-52792380D01*
%TO.C,C2*%
X102271142Y-63428666D02*
X102318761Y-63476285D01*
X102366380Y-63619142D01*
X102366380Y-63714380D01*
X102318761Y-63857238D01*
X102223523Y-63952476D01*
X102128285Y-64000095D01*
X101937809Y-64047714D01*
X101794952Y-64047714D01*
X101604476Y-64000095D01*
X101509238Y-63952476D01*
X101414000Y-63857238D01*
X101366380Y-63714380D01*
X101366380Y-63619142D01*
X101414000Y-63476285D01*
X101461619Y-63428666D01*
X101461619Y-63047714D02*
X101414000Y-63000095D01*
X101366380Y-62904857D01*
X101366380Y-62666761D01*
X101414000Y-62571523D01*
X101461619Y-62523904D01*
X101556857Y-62476285D01*
X101652095Y-62476285D01*
X101794952Y-62523904D01*
X102366380Y-63095333D01*
X102366380Y-62476285D01*
%TO.C,C1*%
X102271142Y-69651666D02*
X102318761Y-69699285D01*
X102366380Y-69842142D01*
X102366380Y-69937380D01*
X102318761Y-70080238D01*
X102223523Y-70175476D01*
X102128285Y-70223095D01*
X101937809Y-70270714D01*
X101794952Y-70270714D01*
X101604476Y-70223095D01*
X101509238Y-70175476D01*
X101414000Y-70080238D01*
X101366380Y-69937380D01*
X101366380Y-69842142D01*
X101414000Y-69699285D01*
X101461619Y-69651666D01*
X102366380Y-68699285D02*
X102366380Y-69270714D01*
X102366380Y-68985000D02*
X101366380Y-68985000D01*
X101509238Y-69080238D01*
X101604476Y-69175476D01*
X101652095Y-69270714D01*
%TD*%
M02*
