%TF.GenerationSoftware,KiCad,Pcbnew,5.1.6-c6e7f7d~87~ubuntu18.04.1*%
%TF.CreationDate,2021-09-19T16:35:13+09:00*%
%TF.ProjectId,M921-SS,4d393231-2d53-4532-9e6b-696361645f70,1.00*%
%TF.SameCoordinates,Original*%
%TF.FileFunction,Soldermask,Bot*%
%TF.FilePolarity,Negative*%
%FSLAX46Y46*%
G04 Gerber Fmt 4.6, Leading zero omitted, Abs format (unit mm)*
G04 Created by KiCad (PCBNEW 5.1.6-c6e7f7d~87~ubuntu18.04.1) date 2021-09-19 16:35:13*
%MOMM*%
%LPD*%
G01*
G04 APERTURE LIST*
%ADD10C,2.800000*%
%ADD11O,2.050000X1.800000*%
%ADD12C,1.500000*%
%ADD13R,1.500000X1.500000*%
%ADD14C,1.700000*%
%ADD15R,1.700000X1.700000*%
G04 APERTURE END LIST*
D10*
%TO.C,REF\u002A\u002A*%
X80010000Y-53975000D03*
%TD*%
%TO.C,REF\u002A\u002A*%
X80010000Y-73025000D03*
%TD*%
%TO.C,REF\u002A\u002A*%
X119380000Y-73025000D03*
%TD*%
%TO.C,REF\u002A\u002A*%
X119380000Y-53975000D03*
%TD*%
D11*
%TO.C,J2*%
X114046000Y-59683000D03*
X114046000Y-62183000D03*
X114046000Y-64683000D03*
G36*
G01*
X114806294Y-68083000D02*
X113285706Y-68083000D01*
G75*
G02*
X113021000Y-67818294I0J264706D01*
G01*
X113021000Y-66547706D01*
G75*
G02*
X113285706Y-66283000I264706J0D01*
G01*
X114806294Y-66283000D01*
G75*
G02*
X115071000Y-66547706I0J-264706D01*
G01*
X115071000Y-67818294D01*
G75*
G02*
X114806294Y-68083000I-264706J0D01*
G01*
G37*
%TD*%
%TO.C,J1*%
X86106000Y-56842000D03*
X86106000Y-59342000D03*
X86106000Y-61842000D03*
X86106000Y-64342000D03*
X86106000Y-66842000D03*
G36*
G01*
X86866294Y-70242000D02*
X85345706Y-70242000D01*
G75*
G02*
X85081000Y-69977294I0J264706D01*
G01*
X85081000Y-68706706D01*
G75*
G02*
X85345706Y-68442000I264706J0D01*
G01*
X86866294Y-68442000D01*
G75*
G02*
X87131000Y-68706706I0J-264706D01*
G01*
X87131000Y-69977294D01*
G75*
G02*
X86866294Y-70242000I-264706J0D01*
G01*
G37*
%TD*%
D12*
%TO.C,D3*%
X94615000Y-58420000D03*
X99695000Y-55880000D03*
X94615000Y-55880000D03*
D13*
X99695000Y-58420000D03*
%TD*%
D12*
%TO.C,D2*%
X94615000Y-64389000D03*
X99695000Y-61849000D03*
X94615000Y-61849000D03*
D13*
X99695000Y-64389000D03*
%TD*%
D12*
%TO.C,D1*%
X94615000Y-70358000D03*
X99695000Y-67818000D03*
X94615000Y-67818000D03*
D13*
X99695000Y-70358000D03*
%TD*%
D14*
%TO.C,C3*%
X105664000Y-56039000D03*
D15*
X105664000Y-58039000D03*
%TD*%
D14*
%TO.C,C2*%
X105664000Y-62262000D03*
D15*
X105664000Y-64262000D03*
%TD*%
D14*
%TO.C,C1*%
X105664000Y-68485000D03*
D15*
X105664000Y-70485000D03*
%TD*%
M02*
