%TF.GenerationSoftware,KiCad,Pcbnew,5.1.6-c6e7f7d~87~ubuntu18.04.1*%
%TF.CreationDate,2021-09-19T16:35:13+09:00*%
%TF.ProjectId,M921-SS,4d393231-2d53-4532-9e6b-696361645f70,1.00*%
%TF.SameCoordinates,Original*%
%TF.FileFunction,Copper,L2,Bot*%
%TF.FilePolarity,Positive*%
%FSLAX46Y46*%
G04 Gerber Fmt 4.6, Leading zero omitted, Abs format (unit mm)*
G04 Created by KiCad (PCBNEW 5.1.6-c6e7f7d~87~ubuntu18.04.1) date 2021-09-19 16:35:13*
%MOMM*%
%LPD*%
G01*
G04 APERTURE LIST*
%TA.AperFunction,ComponentPad*%
%ADD10O,1.950000X1.700000*%
%TD*%
%TA.AperFunction,ComponentPad*%
%ADD11C,1.400000*%
%TD*%
%TA.AperFunction,ComponentPad*%
%ADD12R,1.400000X1.400000*%
%TD*%
%TA.AperFunction,ComponentPad*%
%ADD13C,1.600000*%
%TD*%
%TA.AperFunction,ComponentPad*%
%ADD14R,1.600000X1.600000*%
%TD*%
%TA.AperFunction,Conductor*%
%ADD15C,0.254000*%
%TD*%
G04 APERTURE END LIST*
D10*
%TO.P,J2,4*%
%TO.N,GND*%
X114046000Y-59683000D03*
%TO.P,J2,3*%
%TO.N,Net-(C3-Pad1)*%
X114046000Y-62183000D03*
%TO.P,J2,2*%
%TO.N,Net-(C2-Pad1)*%
X114046000Y-64683000D03*
%TO.P,J2,1*%
%TO.N,Net-(C1-Pad1)*%
%TA.AperFunction,ComponentPad*%
G36*
G01*
X114771000Y-68033000D02*
X113321000Y-68033000D01*
G75*
G02*
X113071000Y-67783000I0J250000D01*
G01*
X113071000Y-66583000D01*
G75*
G02*
X113321000Y-66333000I250000J0D01*
G01*
X114771000Y-66333000D01*
G75*
G02*
X115021000Y-66583000I0J-250000D01*
G01*
X115021000Y-67783000D01*
G75*
G02*
X114771000Y-68033000I-250000J0D01*
G01*
G37*
%TD.AperFunction*%
%TD*%
%TO.P,J1,6*%
%TO.N,Net-(D3-Pad3)*%
X86106000Y-56842000D03*
%TO.P,J1,5*%
%TO.N,Net-(D3-Pad4)*%
X86106000Y-59342000D03*
%TO.P,J1,4*%
%TO.N,Net-(D2-Pad3)*%
X86106000Y-61842000D03*
%TO.P,J1,3*%
%TO.N,Net-(D2-Pad4)*%
X86106000Y-64342000D03*
%TO.P,J1,2*%
%TO.N,Net-(D1-Pad3)*%
X86106000Y-66842000D03*
%TO.P,J1,1*%
%TO.N,Net-(D1-Pad4)*%
%TA.AperFunction,ComponentPad*%
G36*
G01*
X86831000Y-70192000D02*
X85381000Y-70192000D01*
G75*
G02*
X85131000Y-69942000I0J250000D01*
G01*
X85131000Y-68742000D01*
G75*
G02*
X85381000Y-68492000I250000J0D01*
G01*
X86831000Y-68492000D01*
G75*
G02*
X87081000Y-68742000I0J-250000D01*
G01*
X87081000Y-69942000D01*
G75*
G02*
X86831000Y-70192000I-250000J0D01*
G01*
G37*
%TD.AperFunction*%
%TD*%
D11*
%TO.P,D3,4*%
%TO.N,Net-(D3-Pad4)*%
X94615000Y-58420000D03*
%TO.P,D3,2*%
%TO.N,GND*%
X99695000Y-55880000D03*
%TO.P,D3,3*%
%TO.N,Net-(D3-Pad3)*%
X94615000Y-55880000D03*
D12*
%TO.P,D3,1*%
%TO.N,Net-(C3-Pad1)*%
X99695000Y-58420000D03*
%TD*%
D11*
%TO.P,D2,4*%
%TO.N,Net-(D2-Pad4)*%
X94615000Y-64389000D03*
%TO.P,D2,2*%
%TO.N,GND*%
X99695000Y-61849000D03*
%TO.P,D2,3*%
%TO.N,Net-(D2-Pad3)*%
X94615000Y-61849000D03*
D12*
%TO.P,D2,1*%
%TO.N,Net-(C2-Pad1)*%
X99695000Y-64389000D03*
%TD*%
D11*
%TO.P,D1,4*%
%TO.N,Net-(D1-Pad4)*%
X94615000Y-70358000D03*
%TO.P,D1,2*%
%TO.N,GND*%
X99695000Y-67818000D03*
%TO.P,D1,3*%
%TO.N,Net-(D1-Pad3)*%
X94615000Y-67818000D03*
D12*
%TO.P,D1,1*%
%TO.N,Net-(C1-Pad1)*%
X99695000Y-70358000D03*
%TD*%
D13*
%TO.P,C3,2*%
%TO.N,GND*%
X105664000Y-56039000D03*
D14*
%TO.P,C3,1*%
%TO.N,Net-(C3-Pad1)*%
X105664000Y-58039000D03*
%TD*%
D13*
%TO.P,C2,2*%
%TO.N,GND*%
X105664000Y-62262000D03*
D14*
%TO.P,C2,1*%
%TO.N,Net-(C2-Pad1)*%
X105664000Y-64262000D03*
%TD*%
D13*
%TO.P,C1,2*%
%TO.N,GND*%
X105664000Y-68485000D03*
D14*
%TO.P,C1,1*%
%TO.N,Net-(C1-Pad1)*%
X105664000Y-70485000D03*
%TD*%
D15*
%TO.N,GND*%
G36*
X121793000Y-75438000D02*
G01*
X77597000Y-75438000D01*
X77597000Y-72829495D01*
X78025000Y-72829495D01*
X78025000Y-73220505D01*
X78101282Y-73604003D01*
X78250915Y-73965250D01*
X78468149Y-74290364D01*
X78744636Y-74566851D01*
X79069750Y-74784085D01*
X79430997Y-74933718D01*
X79814495Y-75010000D01*
X80205505Y-75010000D01*
X80589003Y-74933718D01*
X80950250Y-74784085D01*
X81275364Y-74566851D01*
X81551851Y-74290364D01*
X81769085Y-73965250D01*
X81918718Y-73604003D01*
X81995000Y-73220505D01*
X81995000Y-72829495D01*
X117395000Y-72829495D01*
X117395000Y-73220505D01*
X117471282Y-73604003D01*
X117620915Y-73965250D01*
X117838149Y-74290364D01*
X118114636Y-74566851D01*
X118439750Y-74784085D01*
X118800997Y-74933718D01*
X119184495Y-75010000D01*
X119575505Y-75010000D01*
X119959003Y-74933718D01*
X120320250Y-74784085D01*
X120645364Y-74566851D01*
X120921851Y-74290364D01*
X121139085Y-73965250D01*
X121288718Y-73604003D01*
X121365000Y-73220505D01*
X121365000Y-72829495D01*
X121288718Y-72445997D01*
X121139085Y-72084750D01*
X120921851Y-71759636D01*
X120645364Y-71483149D01*
X120320250Y-71265915D01*
X119959003Y-71116282D01*
X119575505Y-71040000D01*
X119184495Y-71040000D01*
X118800997Y-71116282D01*
X118439750Y-71265915D01*
X118114636Y-71483149D01*
X117838149Y-71759636D01*
X117620915Y-72084750D01*
X117471282Y-72445997D01*
X117395000Y-72829495D01*
X81995000Y-72829495D01*
X81918718Y-72445997D01*
X81769085Y-72084750D01*
X81551851Y-71759636D01*
X81275364Y-71483149D01*
X80950250Y-71265915D01*
X80589003Y-71116282D01*
X80205505Y-71040000D01*
X79814495Y-71040000D01*
X79430997Y-71116282D01*
X79069750Y-71265915D01*
X78744636Y-71483149D01*
X78468149Y-71759636D01*
X78250915Y-72084750D01*
X78101282Y-72445997D01*
X78025000Y-72829495D01*
X77597000Y-72829495D01*
X77597000Y-56842000D01*
X84488815Y-56842000D01*
X84517487Y-57133111D01*
X84602401Y-57413034D01*
X84740294Y-57671014D01*
X84925866Y-57897134D01*
X85151986Y-58082706D01*
X85169374Y-58092000D01*
X85151986Y-58101294D01*
X84925866Y-58286866D01*
X84740294Y-58512986D01*
X84602401Y-58770966D01*
X84517487Y-59050889D01*
X84488815Y-59342000D01*
X84517487Y-59633111D01*
X84602401Y-59913034D01*
X84740294Y-60171014D01*
X84925866Y-60397134D01*
X85151986Y-60582706D01*
X85169374Y-60592000D01*
X85151986Y-60601294D01*
X84925866Y-60786866D01*
X84740294Y-61012986D01*
X84602401Y-61270966D01*
X84517487Y-61550889D01*
X84488815Y-61842000D01*
X84517487Y-62133111D01*
X84602401Y-62413034D01*
X84740294Y-62671014D01*
X84925866Y-62897134D01*
X85151986Y-63082706D01*
X85169374Y-63092000D01*
X85151986Y-63101294D01*
X84925866Y-63286866D01*
X84740294Y-63512986D01*
X84602401Y-63770966D01*
X84517487Y-64050889D01*
X84488815Y-64342000D01*
X84517487Y-64633111D01*
X84602401Y-64913034D01*
X84740294Y-65171014D01*
X84925866Y-65397134D01*
X85151986Y-65582706D01*
X85169374Y-65592000D01*
X85151986Y-65601294D01*
X84925866Y-65786866D01*
X84740294Y-66012986D01*
X84602401Y-66270966D01*
X84517487Y-66550889D01*
X84488815Y-66842000D01*
X84517487Y-67133111D01*
X84602401Y-67413034D01*
X84740294Y-67671014D01*
X84925866Y-67897134D01*
X84989337Y-67949223D01*
X84887614Y-68003595D01*
X84753038Y-68114038D01*
X84642595Y-68248614D01*
X84560528Y-68402150D01*
X84509992Y-68568746D01*
X84492928Y-68742000D01*
X84492928Y-69942000D01*
X84509992Y-70115254D01*
X84560528Y-70281850D01*
X84642595Y-70435386D01*
X84753038Y-70569962D01*
X84887614Y-70680405D01*
X85041150Y-70762472D01*
X85207746Y-70813008D01*
X85381000Y-70830072D01*
X86831000Y-70830072D01*
X87004254Y-70813008D01*
X87170850Y-70762472D01*
X87324386Y-70680405D01*
X87458962Y-70569962D01*
X87569405Y-70435386D01*
X87651472Y-70281850D01*
X87702008Y-70115254D01*
X87719072Y-69942000D01*
X87719072Y-68742000D01*
X87702008Y-68568746D01*
X87651472Y-68402150D01*
X87569405Y-68248614D01*
X87458962Y-68114038D01*
X87324386Y-68003595D01*
X87222663Y-67949223D01*
X87286134Y-67897134D01*
X87458985Y-67686514D01*
X93280000Y-67686514D01*
X93280000Y-67949486D01*
X93331304Y-68207405D01*
X93431939Y-68450359D01*
X93578038Y-68669013D01*
X93763987Y-68854962D01*
X93982641Y-69001061D01*
X94192530Y-69088000D01*
X93982641Y-69174939D01*
X93763987Y-69321038D01*
X93578038Y-69506987D01*
X93431939Y-69725641D01*
X93331304Y-69968595D01*
X93280000Y-70226514D01*
X93280000Y-70489486D01*
X93331304Y-70747405D01*
X93431939Y-70990359D01*
X93578038Y-71209013D01*
X93763987Y-71394962D01*
X93982641Y-71541061D01*
X94225595Y-71641696D01*
X94483514Y-71693000D01*
X94746486Y-71693000D01*
X95004405Y-71641696D01*
X95247359Y-71541061D01*
X95466013Y-71394962D01*
X95651962Y-71209013D01*
X95798061Y-70990359D01*
X95898696Y-70747405D01*
X95950000Y-70489486D01*
X95950000Y-70226514D01*
X95898696Y-69968595D01*
X95798061Y-69725641D01*
X95752866Y-69658000D01*
X98356928Y-69658000D01*
X98356928Y-71058000D01*
X98369188Y-71182482D01*
X98405498Y-71302180D01*
X98464463Y-71412494D01*
X98543815Y-71509185D01*
X98640506Y-71588537D01*
X98750820Y-71647502D01*
X98870518Y-71683812D01*
X98995000Y-71696072D01*
X100395000Y-71696072D01*
X100519482Y-71683812D01*
X100639180Y-71647502D01*
X100749494Y-71588537D01*
X100846185Y-71509185D01*
X100925537Y-71412494D01*
X100984502Y-71302180D01*
X101020812Y-71182482D01*
X101033072Y-71058000D01*
X101033072Y-69658000D01*
X101020812Y-69533518D01*
X100984502Y-69413820D01*
X100925537Y-69303506D01*
X100846185Y-69206815D01*
X100749494Y-69127463D01*
X100639180Y-69068498D01*
X100519482Y-69032188D01*
X100395000Y-69019928D01*
X100289475Y-69019928D01*
X100377203Y-68973037D01*
X100436664Y-68739269D01*
X99695000Y-67997605D01*
X98953336Y-68739269D01*
X99012797Y-68973037D01*
X99113620Y-69019928D01*
X98995000Y-69019928D01*
X98870518Y-69032188D01*
X98750820Y-69068498D01*
X98640506Y-69127463D01*
X98543815Y-69206815D01*
X98464463Y-69303506D01*
X98405498Y-69413820D01*
X98369188Y-69533518D01*
X98356928Y-69658000D01*
X95752866Y-69658000D01*
X95651962Y-69506987D01*
X95466013Y-69321038D01*
X95247359Y-69174939D01*
X95037470Y-69088000D01*
X95247359Y-69001061D01*
X95466013Y-68854962D01*
X95651962Y-68669013D01*
X95798061Y-68450359D01*
X95898696Y-68207405D01*
X95950000Y-67949486D01*
X95950000Y-67892473D01*
X98355610Y-67892473D01*
X98395875Y-68152344D01*
X98486065Y-68399366D01*
X98539963Y-68500203D01*
X98773731Y-68559664D01*
X99515395Y-67818000D01*
X99874605Y-67818000D01*
X100616269Y-68559664D01*
X100632592Y-68555512D01*
X104223783Y-68555512D01*
X104265213Y-68835130D01*
X104360397Y-69101292D01*
X104425616Y-69223309D01*
X104412815Y-69233815D01*
X104333463Y-69330506D01*
X104274498Y-69440820D01*
X104238188Y-69560518D01*
X104225928Y-69685000D01*
X104225928Y-71285000D01*
X104238188Y-71409482D01*
X104274498Y-71529180D01*
X104333463Y-71639494D01*
X104412815Y-71736185D01*
X104509506Y-71815537D01*
X104619820Y-71874502D01*
X104739518Y-71910812D01*
X104864000Y-71923072D01*
X106464000Y-71923072D01*
X106588482Y-71910812D01*
X106708180Y-71874502D01*
X106818494Y-71815537D01*
X106915185Y-71736185D01*
X106994537Y-71639494D01*
X107053502Y-71529180D01*
X107089812Y-71409482D01*
X107102072Y-71285000D01*
X107102072Y-69685000D01*
X107089812Y-69560518D01*
X107053502Y-69440820D01*
X106994537Y-69330506D01*
X106915185Y-69233815D01*
X106902242Y-69223193D01*
X107021571Y-68971004D01*
X107090300Y-68696816D01*
X107104217Y-68414488D01*
X107062787Y-68134870D01*
X106967603Y-67868708D01*
X106900671Y-67743486D01*
X106656702Y-67671903D01*
X105843605Y-68485000D01*
X105857748Y-68499143D01*
X105678143Y-68678748D01*
X105664000Y-68664605D01*
X105649858Y-68678748D01*
X105470253Y-68499143D01*
X105484395Y-68485000D01*
X104671298Y-67671903D01*
X104427329Y-67743486D01*
X104306429Y-67998996D01*
X104237700Y-68273184D01*
X104223783Y-68555512D01*
X100632592Y-68555512D01*
X100850037Y-68500203D01*
X100960934Y-68261758D01*
X101023183Y-68006260D01*
X101034390Y-67743527D01*
X100995465Y-67492298D01*
X104850903Y-67492298D01*
X105664000Y-68305395D01*
X106477097Y-67492298D01*
X106405514Y-67248329D01*
X106150004Y-67127429D01*
X105875816Y-67058700D01*
X105593488Y-67044783D01*
X105313870Y-67086213D01*
X105047708Y-67181397D01*
X104922486Y-67248329D01*
X104850903Y-67492298D01*
X100995465Y-67492298D01*
X100994125Y-67483656D01*
X100903935Y-67236634D01*
X100850037Y-67135797D01*
X100616269Y-67076336D01*
X99874605Y-67818000D01*
X99515395Y-67818000D01*
X98773731Y-67076336D01*
X98539963Y-67135797D01*
X98429066Y-67374242D01*
X98366817Y-67629740D01*
X98355610Y-67892473D01*
X95950000Y-67892473D01*
X95950000Y-67686514D01*
X95898696Y-67428595D01*
X95798061Y-67185641D01*
X95651962Y-66966987D01*
X95581706Y-66896731D01*
X98953336Y-66896731D01*
X99695000Y-67638395D01*
X100436664Y-66896731D01*
X100377203Y-66662963D01*
X100138758Y-66552066D01*
X99883260Y-66489817D01*
X99620527Y-66478610D01*
X99360656Y-66518875D01*
X99113634Y-66609065D01*
X99012797Y-66662963D01*
X98953336Y-66896731D01*
X95581706Y-66896731D01*
X95466013Y-66781038D01*
X95247359Y-66634939D01*
X95004405Y-66534304D01*
X94746486Y-66483000D01*
X94483514Y-66483000D01*
X94225595Y-66534304D01*
X93982641Y-66634939D01*
X93763987Y-66781038D01*
X93578038Y-66966987D01*
X93431939Y-67185641D01*
X93331304Y-67428595D01*
X93280000Y-67686514D01*
X87458985Y-67686514D01*
X87471706Y-67671014D01*
X87609599Y-67413034D01*
X87694513Y-67133111D01*
X87723185Y-66842000D01*
X87694513Y-66550889D01*
X87609599Y-66270966D01*
X87471706Y-66012986D01*
X87286134Y-65786866D01*
X87060014Y-65601294D01*
X87042626Y-65592000D01*
X87060014Y-65582706D01*
X87286134Y-65397134D01*
X87471706Y-65171014D01*
X87609599Y-64913034D01*
X87694513Y-64633111D01*
X87723185Y-64342000D01*
X87694513Y-64050889D01*
X87609599Y-63770966D01*
X87471706Y-63512986D01*
X87286134Y-63286866D01*
X87060014Y-63101294D01*
X87042626Y-63092000D01*
X87060014Y-63082706D01*
X87286134Y-62897134D01*
X87471706Y-62671014D01*
X87609599Y-62413034D01*
X87694513Y-62133111D01*
X87723185Y-61842000D01*
X87710925Y-61717514D01*
X93280000Y-61717514D01*
X93280000Y-61980486D01*
X93331304Y-62238405D01*
X93431939Y-62481359D01*
X93578038Y-62700013D01*
X93763987Y-62885962D01*
X93982641Y-63032061D01*
X94192530Y-63119000D01*
X93982641Y-63205939D01*
X93763987Y-63352038D01*
X93578038Y-63537987D01*
X93431939Y-63756641D01*
X93331304Y-63999595D01*
X93280000Y-64257514D01*
X93280000Y-64520486D01*
X93331304Y-64778405D01*
X93431939Y-65021359D01*
X93578038Y-65240013D01*
X93763987Y-65425962D01*
X93982641Y-65572061D01*
X94225595Y-65672696D01*
X94483514Y-65724000D01*
X94746486Y-65724000D01*
X95004405Y-65672696D01*
X95247359Y-65572061D01*
X95466013Y-65425962D01*
X95651962Y-65240013D01*
X95798061Y-65021359D01*
X95898696Y-64778405D01*
X95950000Y-64520486D01*
X95950000Y-64257514D01*
X95898696Y-63999595D01*
X95798061Y-63756641D01*
X95752866Y-63689000D01*
X98356928Y-63689000D01*
X98356928Y-65089000D01*
X98369188Y-65213482D01*
X98405498Y-65333180D01*
X98464463Y-65443494D01*
X98543815Y-65540185D01*
X98640506Y-65619537D01*
X98750820Y-65678502D01*
X98870518Y-65714812D01*
X98995000Y-65727072D01*
X100395000Y-65727072D01*
X100519482Y-65714812D01*
X100639180Y-65678502D01*
X100749494Y-65619537D01*
X100846185Y-65540185D01*
X100925537Y-65443494D01*
X100984502Y-65333180D01*
X101020812Y-65213482D01*
X101033072Y-65089000D01*
X101033072Y-63689000D01*
X101020812Y-63564518D01*
X100984502Y-63444820D01*
X100925537Y-63334506D01*
X100846185Y-63237815D01*
X100749494Y-63158463D01*
X100639180Y-63099498D01*
X100519482Y-63063188D01*
X100395000Y-63050928D01*
X100289475Y-63050928D01*
X100377203Y-63004037D01*
X100436664Y-62770269D01*
X99695000Y-62028605D01*
X98953336Y-62770269D01*
X99012797Y-63004037D01*
X99113620Y-63050928D01*
X98995000Y-63050928D01*
X98870518Y-63063188D01*
X98750820Y-63099498D01*
X98640506Y-63158463D01*
X98543815Y-63237815D01*
X98464463Y-63334506D01*
X98405498Y-63444820D01*
X98369188Y-63564518D01*
X98356928Y-63689000D01*
X95752866Y-63689000D01*
X95651962Y-63537987D01*
X95466013Y-63352038D01*
X95247359Y-63205939D01*
X95037470Y-63119000D01*
X95247359Y-63032061D01*
X95466013Y-62885962D01*
X95651962Y-62700013D01*
X95798061Y-62481359D01*
X95898696Y-62238405D01*
X95950000Y-61980486D01*
X95950000Y-61923473D01*
X98355610Y-61923473D01*
X98395875Y-62183344D01*
X98486065Y-62430366D01*
X98539963Y-62531203D01*
X98773731Y-62590664D01*
X99515395Y-61849000D01*
X99874605Y-61849000D01*
X100616269Y-62590664D01*
X100850037Y-62531203D01*
X100942445Y-62332512D01*
X104223783Y-62332512D01*
X104265213Y-62612130D01*
X104360397Y-62878292D01*
X104425616Y-63000309D01*
X104412815Y-63010815D01*
X104333463Y-63107506D01*
X104274498Y-63217820D01*
X104238188Y-63337518D01*
X104225928Y-63462000D01*
X104225928Y-65062000D01*
X104238188Y-65186482D01*
X104274498Y-65306180D01*
X104333463Y-65416494D01*
X104412815Y-65513185D01*
X104509506Y-65592537D01*
X104619820Y-65651502D01*
X104739518Y-65687812D01*
X104864000Y-65700072D01*
X106464000Y-65700072D01*
X106588482Y-65687812D01*
X106708180Y-65651502D01*
X106818494Y-65592537D01*
X106915185Y-65513185D01*
X106994537Y-65416494D01*
X107053502Y-65306180D01*
X107089812Y-65186482D01*
X107102072Y-65062000D01*
X107102072Y-63462000D01*
X107089812Y-63337518D01*
X107053502Y-63217820D01*
X106994537Y-63107506D01*
X106915185Y-63010815D01*
X106902242Y-63000193D01*
X107021571Y-62748004D01*
X107090300Y-62473816D01*
X107104217Y-62191488D01*
X107102960Y-62183000D01*
X112428815Y-62183000D01*
X112457487Y-62474111D01*
X112542401Y-62754034D01*
X112680294Y-63012014D01*
X112865866Y-63238134D01*
X113091986Y-63423706D01*
X113109374Y-63433000D01*
X113091986Y-63442294D01*
X112865866Y-63627866D01*
X112680294Y-63853986D01*
X112542401Y-64111966D01*
X112457487Y-64391889D01*
X112428815Y-64683000D01*
X112457487Y-64974111D01*
X112542401Y-65254034D01*
X112680294Y-65512014D01*
X112865866Y-65738134D01*
X112929337Y-65790223D01*
X112827614Y-65844595D01*
X112693038Y-65955038D01*
X112582595Y-66089614D01*
X112500528Y-66243150D01*
X112449992Y-66409746D01*
X112432928Y-66583000D01*
X112432928Y-67783000D01*
X112449992Y-67956254D01*
X112500528Y-68122850D01*
X112582595Y-68276386D01*
X112693038Y-68410962D01*
X112827614Y-68521405D01*
X112981150Y-68603472D01*
X113147746Y-68654008D01*
X113321000Y-68671072D01*
X114771000Y-68671072D01*
X114944254Y-68654008D01*
X115110850Y-68603472D01*
X115264386Y-68521405D01*
X115398962Y-68410962D01*
X115509405Y-68276386D01*
X115591472Y-68122850D01*
X115642008Y-67956254D01*
X115659072Y-67783000D01*
X115659072Y-66583000D01*
X115642008Y-66409746D01*
X115591472Y-66243150D01*
X115509405Y-66089614D01*
X115398962Y-65955038D01*
X115264386Y-65844595D01*
X115162663Y-65790223D01*
X115226134Y-65738134D01*
X115411706Y-65512014D01*
X115549599Y-65254034D01*
X115634513Y-64974111D01*
X115663185Y-64683000D01*
X115634513Y-64391889D01*
X115549599Y-64111966D01*
X115411706Y-63853986D01*
X115226134Y-63627866D01*
X115000014Y-63442294D01*
X114982626Y-63433000D01*
X115000014Y-63423706D01*
X115226134Y-63238134D01*
X115411706Y-63012014D01*
X115549599Y-62754034D01*
X115634513Y-62474111D01*
X115663185Y-62183000D01*
X115634513Y-61891889D01*
X115549599Y-61611966D01*
X115411706Y-61353986D01*
X115226134Y-61127866D01*
X115000014Y-60942294D01*
X114974278Y-60928538D01*
X115180429Y-60772049D01*
X115373496Y-60554193D01*
X115520352Y-60302858D01*
X115612476Y-60039890D01*
X115491155Y-59810000D01*
X114173000Y-59810000D01*
X114173000Y-59830000D01*
X113919000Y-59830000D01*
X113919000Y-59810000D01*
X112600845Y-59810000D01*
X112479524Y-60039890D01*
X112571648Y-60302858D01*
X112718504Y-60554193D01*
X112911571Y-60772049D01*
X113117722Y-60928538D01*
X113091986Y-60942294D01*
X112865866Y-61127866D01*
X112680294Y-61353986D01*
X112542401Y-61611966D01*
X112457487Y-61891889D01*
X112428815Y-62183000D01*
X107102960Y-62183000D01*
X107062787Y-61911870D01*
X106967603Y-61645708D01*
X106900671Y-61520486D01*
X106656702Y-61448903D01*
X105843605Y-62262000D01*
X105857748Y-62276143D01*
X105678143Y-62455748D01*
X105664000Y-62441605D01*
X105649858Y-62455748D01*
X105470253Y-62276143D01*
X105484395Y-62262000D01*
X104671298Y-61448903D01*
X104427329Y-61520486D01*
X104306429Y-61775996D01*
X104237700Y-62050184D01*
X104223783Y-62332512D01*
X100942445Y-62332512D01*
X100960934Y-62292758D01*
X101023183Y-62037260D01*
X101034390Y-61774527D01*
X100994125Y-61514656D01*
X100904543Y-61269298D01*
X104850903Y-61269298D01*
X105664000Y-62082395D01*
X106477097Y-61269298D01*
X106405514Y-61025329D01*
X106150004Y-60904429D01*
X105875816Y-60835700D01*
X105593488Y-60821783D01*
X105313870Y-60863213D01*
X105047708Y-60958397D01*
X104922486Y-61025329D01*
X104850903Y-61269298D01*
X100904543Y-61269298D01*
X100903935Y-61267634D01*
X100850037Y-61166797D01*
X100616269Y-61107336D01*
X99874605Y-61849000D01*
X99515395Y-61849000D01*
X98773731Y-61107336D01*
X98539963Y-61166797D01*
X98429066Y-61405242D01*
X98366817Y-61660740D01*
X98355610Y-61923473D01*
X95950000Y-61923473D01*
X95950000Y-61717514D01*
X95898696Y-61459595D01*
X95798061Y-61216641D01*
X95651962Y-60997987D01*
X95581706Y-60927731D01*
X98953336Y-60927731D01*
X99695000Y-61669395D01*
X100436664Y-60927731D01*
X100377203Y-60693963D01*
X100138758Y-60583066D01*
X99883260Y-60520817D01*
X99620527Y-60509610D01*
X99360656Y-60549875D01*
X99113634Y-60640065D01*
X99012797Y-60693963D01*
X98953336Y-60927731D01*
X95581706Y-60927731D01*
X95466013Y-60812038D01*
X95247359Y-60665939D01*
X95004405Y-60565304D01*
X94746486Y-60514000D01*
X94483514Y-60514000D01*
X94225595Y-60565304D01*
X93982641Y-60665939D01*
X93763987Y-60812038D01*
X93578038Y-60997987D01*
X93431939Y-61216641D01*
X93331304Y-61459595D01*
X93280000Y-61717514D01*
X87710925Y-61717514D01*
X87694513Y-61550889D01*
X87609599Y-61270966D01*
X87471706Y-61012986D01*
X87286134Y-60786866D01*
X87060014Y-60601294D01*
X87042626Y-60592000D01*
X87060014Y-60582706D01*
X87286134Y-60397134D01*
X87471706Y-60171014D01*
X87609599Y-59913034D01*
X87694513Y-59633111D01*
X87723185Y-59342000D01*
X87694513Y-59050889D01*
X87609599Y-58770966D01*
X87471706Y-58512986D01*
X87286134Y-58286866D01*
X87060014Y-58101294D01*
X87042626Y-58092000D01*
X87060014Y-58082706D01*
X87286134Y-57897134D01*
X87471706Y-57671014D01*
X87609599Y-57413034D01*
X87694513Y-57133111D01*
X87723185Y-56842000D01*
X87694513Y-56550889D01*
X87609599Y-56270966D01*
X87471706Y-56012986D01*
X87286134Y-55786866D01*
X87239402Y-55748514D01*
X93280000Y-55748514D01*
X93280000Y-56011486D01*
X93331304Y-56269405D01*
X93431939Y-56512359D01*
X93578038Y-56731013D01*
X93763987Y-56916962D01*
X93982641Y-57063061D01*
X94192530Y-57150000D01*
X93982641Y-57236939D01*
X93763987Y-57383038D01*
X93578038Y-57568987D01*
X93431939Y-57787641D01*
X93331304Y-58030595D01*
X93280000Y-58288514D01*
X93280000Y-58551486D01*
X93331304Y-58809405D01*
X93431939Y-59052359D01*
X93578038Y-59271013D01*
X93763987Y-59456962D01*
X93982641Y-59603061D01*
X94225595Y-59703696D01*
X94483514Y-59755000D01*
X94746486Y-59755000D01*
X95004405Y-59703696D01*
X95247359Y-59603061D01*
X95466013Y-59456962D01*
X95651962Y-59271013D01*
X95798061Y-59052359D01*
X95898696Y-58809405D01*
X95950000Y-58551486D01*
X95950000Y-58288514D01*
X95898696Y-58030595D01*
X95798061Y-57787641D01*
X95752866Y-57720000D01*
X98356928Y-57720000D01*
X98356928Y-59120000D01*
X98369188Y-59244482D01*
X98405498Y-59364180D01*
X98464463Y-59474494D01*
X98543815Y-59571185D01*
X98640506Y-59650537D01*
X98750820Y-59709502D01*
X98870518Y-59745812D01*
X98995000Y-59758072D01*
X100395000Y-59758072D01*
X100519482Y-59745812D01*
X100639180Y-59709502D01*
X100749494Y-59650537D01*
X100846185Y-59571185D01*
X100925537Y-59474494D01*
X100984502Y-59364180D01*
X101020812Y-59244482D01*
X101033072Y-59120000D01*
X101033072Y-57720000D01*
X101020812Y-57595518D01*
X100984502Y-57475820D01*
X100925537Y-57365506D01*
X100846185Y-57268815D01*
X100749494Y-57189463D01*
X100639180Y-57130498D01*
X100519482Y-57094188D01*
X100395000Y-57081928D01*
X100289475Y-57081928D01*
X100377203Y-57035037D01*
X100436664Y-56801269D01*
X99695000Y-56059605D01*
X98953336Y-56801269D01*
X99012797Y-57035037D01*
X99113620Y-57081928D01*
X98995000Y-57081928D01*
X98870518Y-57094188D01*
X98750820Y-57130498D01*
X98640506Y-57189463D01*
X98543815Y-57268815D01*
X98464463Y-57365506D01*
X98405498Y-57475820D01*
X98369188Y-57595518D01*
X98356928Y-57720000D01*
X95752866Y-57720000D01*
X95651962Y-57568987D01*
X95466013Y-57383038D01*
X95247359Y-57236939D01*
X95037470Y-57150000D01*
X95247359Y-57063061D01*
X95466013Y-56916962D01*
X95651962Y-56731013D01*
X95798061Y-56512359D01*
X95898696Y-56269405D01*
X95950000Y-56011486D01*
X95950000Y-55954473D01*
X98355610Y-55954473D01*
X98395875Y-56214344D01*
X98486065Y-56461366D01*
X98539963Y-56562203D01*
X98773731Y-56621664D01*
X99515395Y-55880000D01*
X99874605Y-55880000D01*
X100616269Y-56621664D01*
X100850037Y-56562203D01*
X100960934Y-56323758D01*
X101013132Y-56109512D01*
X104223783Y-56109512D01*
X104265213Y-56389130D01*
X104360397Y-56655292D01*
X104425616Y-56777309D01*
X104412815Y-56787815D01*
X104333463Y-56884506D01*
X104274498Y-56994820D01*
X104238188Y-57114518D01*
X104225928Y-57239000D01*
X104225928Y-58839000D01*
X104238188Y-58963482D01*
X104274498Y-59083180D01*
X104333463Y-59193494D01*
X104412815Y-59290185D01*
X104509506Y-59369537D01*
X104619820Y-59428502D01*
X104739518Y-59464812D01*
X104864000Y-59477072D01*
X106464000Y-59477072D01*
X106588482Y-59464812D01*
X106708180Y-59428502D01*
X106818494Y-59369537D01*
X106871410Y-59326110D01*
X112479524Y-59326110D01*
X112600845Y-59556000D01*
X113919000Y-59556000D01*
X113919000Y-58356835D01*
X114173000Y-58356835D01*
X114173000Y-59556000D01*
X115491155Y-59556000D01*
X115612476Y-59326110D01*
X115520352Y-59063142D01*
X115373496Y-58811807D01*
X115180429Y-58593951D01*
X114948570Y-58417947D01*
X114686830Y-58290558D01*
X114405267Y-58216680D01*
X114173000Y-58356835D01*
X113919000Y-58356835D01*
X113686733Y-58216680D01*
X113405170Y-58290558D01*
X113143430Y-58417947D01*
X112911571Y-58593951D01*
X112718504Y-58811807D01*
X112571648Y-59063142D01*
X112479524Y-59326110D01*
X106871410Y-59326110D01*
X106915185Y-59290185D01*
X106994537Y-59193494D01*
X107053502Y-59083180D01*
X107089812Y-58963482D01*
X107102072Y-58839000D01*
X107102072Y-57239000D01*
X107089812Y-57114518D01*
X107053502Y-56994820D01*
X106994537Y-56884506D01*
X106915185Y-56787815D01*
X106902242Y-56777193D01*
X107021571Y-56525004D01*
X107090300Y-56250816D01*
X107104217Y-55968488D01*
X107062787Y-55688870D01*
X106967603Y-55422708D01*
X106900671Y-55297486D01*
X106656702Y-55225903D01*
X105843605Y-56039000D01*
X105857748Y-56053143D01*
X105678143Y-56232748D01*
X105664000Y-56218605D01*
X105649858Y-56232748D01*
X105470253Y-56053143D01*
X105484395Y-56039000D01*
X104671298Y-55225903D01*
X104427329Y-55297486D01*
X104306429Y-55552996D01*
X104237700Y-55827184D01*
X104223783Y-56109512D01*
X101013132Y-56109512D01*
X101023183Y-56068260D01*
X101034390Y-55805527D01*
X100994125Y-55545656D01*
X100903935Y-55298634D01*
X100850037Y-55197797D01*
X100616269Y-55138336D01*
X99874605Y-55880000D01*
X99515395Y-55880000D01*
X98773731Y-55138336D01*
X98539963Y-55197797D01*
X98429066Y-55436242D01*
X98366817Y-55691740D01*
X98355610Y-55954473D01*
X95950000Y-55954473D01*
X95950000Y-55748514D01*
X95898696Y-55490595D01*
X95798061Y-55247641D01*
X95651962Y-55028987D01*
X95581706Y-54958731D01*
X98953336Y-54958731D01*
X99695000Y-55700395D01*
X100349097Y-55046298D01*
X104850903Y-55046298D01*
X105664000Y-55859395D01*
X106477097Y-55046298D01*
X106405514Y-54802329D01*
X106150004Y-54681429D01*
X105875816Y-54612700D01*
X105593488Y-54598783D01*
X105313870Y-54640213D01*
X105047708Y-54735397D01*
X104922486Y-54802329D01*
X104850903Y-55046298D01*
X100349097Y-55046298D01*
X100436664Y-54958731D01*
X100377203Y-54724963D01*
X100138758Y-54614066D01*
X99883260Y-54551817D01*
X99620527Y-54540610D01*
X99360656Y-54580875D01*
X99113634Y-54671065D01*
X99012797Y-54724963D01*
X98953336Y-54958731D01*
X95581706Y-54958731D01*
X95466013Y-54843038D01*
X95247359Y-54696939D01*
X95004405Y-54596304D01*
X94746486Y-54545000D01*
X94483514Y-54545000D01*
X94225595Y-54596304D01*
X93982641Y-54696939D01*
X93763987Y-54843038D01*
X93578038Y-55028987D01*
X93431939Y-55247641D01*
X93331304Y-55490595D01*
X93280000Y-55748514D01*
X87239402Y-55748514D01*
X87060014Y-55601294D01*
X86802034Y-55463401D01*
X86522111Y-55378487D01*
X86303950Y-55357000D01*
X85908050Y-55357000D01*
X85689889Y-55378487D01*
X85409966Y-55463401D01*
X85151986Y-55601294D01*
X84925866Y-55786866D01*
X84740294Y-56012986D01*
X84602401Y-56270966D01*
X84517487Y-56550889D01*
X84488815Y-56842000D01*
X77597000Y-56842000D01*
X77597000Y-53779495D01*
X78025000Y-53779495D01*
X78025000Y-54170505D01*
X78101282Y-54554003D01*
X78250915Y-54915250D01*
X78468149Y-55240364D01*
X78744636Y-55516851D01*
X79069750Y-55734085D01*
X79430997Y-55883718D01*
X79814495Y-55960000D01*
X80205505Y-55960000D01*
X80589003Y-55883718D01*
X80950250Y-55734085D01*
X81275364Y-55516851D01*
X81551851Y-55240364D01*
X81769085Y-54915250D01*
X81918718Y-54554003D01*
X81995000Y-54170505D01*
X81995000Y-53779495D01*
X117395000Y-53779495D01*
X117395000Y-54170505D01*
X117471282Y-54554003D01*
X117620915Y-54915250D01*
X117838149Y-55240364D01*
X118114636Y-55516851D01*
X118439750Y-55734085D01*
X118800997Y-55883718D01*
X119184495Y-55960000D01*
X119575505Y-55960000D01*
X119959003Y-55883718D01*
X120320250Y-55734085D01*
X120645364Y-55516851D01*
X120921851Y-55240364D01*
X121139085Y-54915250D01*
X121288718Y-54554003D01*
X121365000Y-54170505D01*
X121365000Y-53779495D01*
X121288718Y-53395997D01*
X121139085Y-53034750D01*
X120921851Y-52709636D01*
X120645364Y-52433149D01*
X120320250Y-52215915D01*
X119959003Y-52066282D01*
X119575505Y-51990000D01*
X119184495Y-51990000D01*
X118800997Y-52066282D01*
X118439750Y-52215915D01*
X118114636Y-52433149D01*
X117838149Y-52709636D01*
X117620915Y-53034750D01*
X117471282Y-53395997D01*
X117395000Y-53779495D01*
X81995000Y-53779495D01*
X81918718Y-53395997D01*
X81769085Y-53034750D01*
X81551851Y-52709636D01*
X81275364Y-52433149D01*
X80950250Y-52215915D01*
X80589003Y-52066282D01*
X80205505Y-51990000D01*
X79814495Y-51990000D01*
X79430997Y-52066282D01*
X79069750Y-52215915D01*
X78744636Y-52433149D01*
X78468149Y-52709636D01*
X78250915Y-53034750D01*
X78101282Y-53395997D01*
X78025000Y-53779495D01*
X77597000Y-53779495D01*
X77597000Y-51562000D01*
X121793000Y-51562000D01*
X121793000Y-75438000D01*
G37*
X121793000Y-75438000D02*
X77597000Y-75438000D01*
X77597000Y-72829495D01*
X78025000Y-72829495D01*
X78025000Y-73220505D01*
X78101282Y-73604003D01*
X78250915Y-73965250D01*
X78468149Y-74290364D01*
X78744636Y-74566851D01*
X79069750Y-74784085D01*
X79430997Y-74933718D01*
X79814495Y-75010000D01*
X80205505Y-75010000D01*
X80589003Y-74933718D01*
X80950250Y-74784085D01*
X81275364Y-74566851D01*
X81551851Y-74290364D01*
X81769085Y-73965250D01*
X81918718Y-73604003D01*
X81995000Y-73220505D01*
X81995000Y-72829495D01*
X117395000Y-72829495D01*
X117395000Y-73220505D01*
X117471282Y-73604003D01*
X117620915Y-73965250D01*
X117838149Y-74290364D01*
X118114636Y-74566851D01*
X118439750Y-74784085D01*
X118800997Y-74933718D01*
X119184495Y-75010000D01*
X119575505Y-75010000D01*
X119959003Y-74933718D01*
X120320250Y-74784085D01*
X120645364Y-74566851D01*
X120921851Y-74290364D01*
X121139085Y-73965250D01*
X121288718Y-73604003D01*
X121365000Y-73220505D01*
X121365000Y-72829495D01*
X121288718Y-72445997D01*
X121139085Y-72084750D01*
X120921851Y-71759636D01*
X120645364Y-71483149D01*
X120320250Y-71265915D01*
X119959003Y-71116282D01*
X119575505Y-71040000D01*
X119184495Y-71040000D01*
X118800997Y-71116282D01*
X118439750Y-71265915D01*
X118114636Y-71483149D01*
X117838149Y-71759636D01*
X117620915Y-72084750D01*
X117471282Y-72445997D01*
X117395000Y-72829495D01*
X81995000Y-72829495D01*
X81918718Y-72445997D01*
X81769085Y-72084750D01*
X81551851Y-71759636D01*
X81275364Y-71483149D01*
X80950250Y-71265915D01*
X80589003Y-71116282D01*
X80205505Y-71040000D01*
X79814495Y-71040000D01*
X79430997Y-71116282D01*
X79069750Y-71265915D01*
X78744636Y-71483149D01*
X78468149Y-71759636D01*
X78250915Y-72084750D01*
X78101282Y-72445997D01*
X78025000Y-72829495D01*
X77597000Y-72829495D01*
X77597000Y-56842000D01*
X84488815Y-56842000D01*
X84517487Y-57133111D01*
X84602401Y-57413034D01*
X84740294Y-57671014D01*
X84925866Y-57897134D01*
X85151986Y-58082706D01*
X85169374Y-58092000D01*
X85151986Y-58101294D01*
X84925866Y-58286866D01*
X84740294Y-58512986D01*
X84602401Y-58770966D01*
X84517487Y-59050889D01*
X84488815Y-59342000D01*
X84517487Y-59633111D01*
X84602401Y-59913034D01*
X84740294Y-60171014D01*
X84925866Y-60397134D01*
X85151986Y-60582706D01*
X85169374Y-60592000D01*
X85151986Y-60601294D01*
X84925866Y-60786866D01*
X84740294Y-61012986D01*
X84602401Y-61270966D01*
X84517487Y-61550889D01*
X84488815Y-61842000D01*
X84517487Y-62133111D01*
X84602401Y-62413034D01*
X84740294Y-62671014D01*
X84925866Y-62897134D01*
X85151986Y-63082706D01*
X85169374Y-63092000D01*
X85151986Y-63101294D01*
X84925866Y-63286866D01*
X84740294Y-63512986D01*
X84602401Y-63770966D01*
X84517487Y-64050889D01*
X84488815Y-64342000D01*
X84517487Y-64633111D01*
X84602401Y-64913034D01*
X84740294Y-65171014D01*
X84925866Y-65397134D01*
X85151986Y-65582706D01*
X85169374Y-65592000D01*
X85151986Y-65601294D01*
X84925866Y-65786866D01*
X84740294Y-66012986D01*
X84602401Y-66270966D01*
X84517487Y-66550889D01*
X84488815Y-66842000D01*
X84517487Y-67133111D01*
X84602401Y-67413034D01*
X84740294Y-67671014D01*
X84925866Y-67897134D01*
X84989337Y-67949223D01*
X84887614Y-68003595D01*
X84753038Y-68114038D01*
X84642595Y-68248614D01*
X84560528Y-68402150D01*
X84509992Y-68568746D01*
X84492928Y-68742000D01*
X84492928Y-69942000D01*
X84509992Y-70115254D01*
X84560528Y-70281850D01*
X84642595Y-70435386D01*
X84753038Y-70569962D01*
X84887614Y-70680405D01*
X85041150Y-70762472D01*
X85207746Y-70813008D01*
X85381000Y-70830072D01*
X86831000Y-70830072D01*
X87004254Y-70813008D01*
X87170850Y-70762472D01*
X87324386Y-70680405D01*
X87458962Y-70569962D01*
X87569405Y-70435386D01*
X87651472Y-70281850D01*
X87702008Y-70115254D01*
X87719072Y-69942000D01*
X87719072Y-68742000D01*
X87702008Y-68568746D01*
X87651472Y-68402150D01*
X87569405Y-68248614D01*
X87458962Y-68114038D01*
X87324386Y-68003595D01*
X87222663Y-67949223D01*
X87286134Y-67897134D01*
X87458985Y-67686514D01*
X93280000Y-67686514D01*
X93280000Y-67949486D01*
X93331304Y-68207405D01*
X93431939Y-68450359D01*
X93578038Y-68669013D01*
X93763987Y-68854962D01*
X93982641Y-69001061D01*
X94192530Y-69088000D01*
X93982641Y-69174939D01*
X93763987Y-69321038D01*
X93578038Y-69506987D01*
X93431939Y-69725641D01*
X93331304Y-69968595D01*
X93280000Y-70226514D01*
X93280000Y-70489486D01*
X93331304Y-70747405D01*
X93431939Y-70990359D01*
X93578038Y-71209013D01*
X93763987Y-71394962D01*
X93982641Y-71541061D01*
X94225595Y-71641696D01*
X94483514Y-71693000D01*
X94746486Y-71693000D01*
X95004405Y-71641696D01*
X95247359Y-71541061D01*
X95466013Y-71394962D01*
X95651962Y-71209013D01*
X95798061Y-70990359D01*
X95898696Y-70747405D01*
X95950000Y-70489486D01*
X95950000Y-70226514D01*
X95898696Y-69968595D01*
X95798061Y-69725641D01*
X95752866Y-69658000D01*
X98356928Y-69658000D01*
X98356928Y-71058000D01*
X98369188Y-71182482D01*
X98405498Y-71302180D01*
X98464463Y-71412494D01*
X98543815Y-71509185D01*
X98640506Y-71588537D01*
X98750820Y-71647502D01*
X98870518Y-71683812D01*
X98995000Y-71696072D01*
X100395000Y-71696072D01*
X100519482Y-71683812D01*
X100639180Y-71647502D01*
X100749494Y-71588537D01*
X100846185Y-71509185D01*
X100925537Y-71412494D01*
X100984502Y-71302180D01*
X101020812Y-71182482D01*
X101033072Y-71058000D01*
X101033072Y-69658000D01*
X101020812Y-69533518D01*
X100984502Y-69413820D01*
X100925537Y-69303506D01*
X100846185Y-69206815D01*
X100749494Y-69127463D01*
X100639180Y-69068498D01*
X100519482Y-69032188D01*
X100395000Y-69019928D01*
X100289475Y-69019928D01*
X100377203Y-68973037D01*
X100436664Y-68739269D01*
X99695000Y-67997605D01*
X98953336Y-68739269D01*
X99012797Y-68973037D01*
X99113620Y-69019928D01*
X98995000Y-69019928D01*
X98870518Y-69032188D01*
X98750820Y-69068498D01*
X98640506Y-69127463D01*
X98543815Y-69206815D01*
X98464463Y-69303506D01*
X98405498Y-69413820D01*
X98369188Y-69533518D01*
X98356928Y-69658000D01*
X95752866Y-69658000D01*
X95651962Y-69506987D01*
X95466013Y-69321038D01*
X95247359Y-69174939D01*
X95037470Y-69088000D01*
X95247359Y-69001061D01*
X95466013Y-68854962D01*
X95651962Y-68669013D01*
X95798061Y-68450359D01*
X95898696Y-68207405D01*
X95950000Y-67949486D01*
X95950000Y-67892473D01*
X98355610Y-67892473D01*
X98395875Y-68152344D01*
X98486065Y-68399366D01*
X98539963Y-68500203D01*
X98773731Y-68559664D01*
X99515395Y-67818000D01*
X99874605Y-67818000D01*
X100616269Y-68559664D01*
X100632592Y-68555512D01*
X104223783Y-68555512D01*
X104265213Y-68835130D01*
X104360397Y-69101292D01*
X104425616Y-69223309D01*
X104412815Y-69233815D01*
X104333463Y-69330506D01*
X104274498Y-69440820D01*
X104238188Y-69560518D01*
X104225928Y-69685000D01*
X104225928Y-71285000D01*
X104238188Y-71409482D01*
X104274498Y-71529180D01*
X104333463Y-71639494D01*
X104412815Y-71736185D01*
X104509506Y-71815537D01*
X104619820Y-71874502D01*
X104739518Y-71910812D01*
X104864000Y-71923072D01*
X106464000Y-71923072D01*
X106588482Y-71910812D01*
X106708180Y-71874502D01*
X106818494Y-71815537D01*
X106915185Y-71736185D01*
X106994537Y-71639494D01*
X107053502Y-71529180D01*
X107089812Y-71409482D01*
X107102072Y-71285000D01*
X107102072Y-69685000D01*
X107089812Y-69560518D01*
X107053502Y-69440820D01*
X106994537Y-69330506D01*
X106915185Y-69233815D01*
X106902242Y-69223193D01*
X107021571Y-68971004D01*
X107090300Y-68696816D01*
X107104217Y-68414488D01*
X107062787Y-68134870D01*
X106967603Y-67868708D01*
X106900671Y-67743486D01*
X106656702Y-67671903D01*
X105843605Y-68485000D01*
X105857748Y-68499143D01*
X105678143Y-68678748D01*
X105664000Y-68664605D01*
X105649858Y-68678748D01*
X105470253Y-68499143D01*
X105484395Y-68485000D01*
X104671298Y-67671903D01*
X104427329Y-67743486D01*
X104306429Y-67998996D01*
X104237700Y-68273184D01*
X104223783Y-68555512D01*
X100632592Y-68555512D01*
X100850037Y-68500203D01*
X100960934Y-68261758D01*
X101023183Y-68006260D01*
X101034390Y-67743527D01*
X100995465Y-67492298D01*
X104850903Y-67492298D01*
X105664000Y-68305395D01*
X106477097Y-67492298D01*
X106405514Y-67248329D01*
X106150004Y-67127429D01*
X105875816Y-67058700D01*
X105593488Y-67044783D01*
X105313870Y-67086213D01*
X105047708Y-67181397D01*
X104922486Y-67248329D01*
X104850903Y-67492298D01*
X100995465Y-67492298D01*
X100994125Y-67483656D01*
X100903935Y-67236634D01*
X100850037Y-67135797D01*
X100616269Y-67076336D01*
X99874605Y-67818000D01*
X99515395Y-67818000D01*
X98773731Y-67076336D01*
X98539963Y-67135797D01*
X98429066Y-67374242D01*
X98366817Y-67629740D01*
X98355610Y-67892473D01*
X95950000Y-67892473D01*
X95950000Y-67686514D01*
X95898696Y-67428595D01*
X95798061Y-67185641D01*
X95651962Y-66966987D01*
X95581706Y-66896731D01*
X98953336Y-66896731D01*
X99695000Y-67638395D01*
X100436664Y-66896731D01*
X100377203Y-66662963D01*
X100138758Y-66552066D01*
X99883260Y-66489817D01*
X99620527Y-66478610D01*
X99360656Y-66518875D01*
X99113634Y-66609065D01*
X99012797Y-66662963D01*
X98953336Y-66896731D01*
X95581706Y-66896731D01*
X95466013Y-66781038D01*
X95247359Y-66634939D01*
X95004405Y-66534304D01*
X94746486Y-66483000D01*
X94483514Y-66483000D01*
X94225595Y-66534304D01*
X93982641Y-66634939D01*
X93763987Y-66781038D01*
X93578038Y-66966987D01*
X93431939Y-67185641D01*
X93331304Y-67428595D01*
X93280000Y-67686514D01*
X87458985Y-67686514D01*
X87471706Y-67671014D01*
X87609599Y-67413034D01*
X87694513Y-67133111D01*
X87723185Y-66842000D01*
X87694513Y-66550889D01*
X87609599Y-66270966D01*
X87471706Y-66012986D01*
X87286134Y-65786866D01*
X87060014Y-65601294D01*
X87042626Y-65592000D01*
X87060014Y-65582706D01*
X87286134Y-65397134D01*
X87471706Y-65171014D01*
X87609599Y-64913034D01*
X87694513Y-64633111D01*
X87723185Y-64342000D01*
X87694513Y-64050889D01*
X87609599Y-63770966D01*
X87471706Y-63512986D01*
X87286134Y-63286866D01*
X87060014Y-63101294D01*
X87042626Y-63092000D01*
X87060014Y-63082706D01*
X87286134Y-62897134D01*
X87471706Y-62671014D01*
X87609599Y-62413034D01*
X87694513Y-62133111D01*
X87723185Y-61842000D01*
X87710925Y-61717514D01*
X93280000Y-61717514D01*
X93280000Y-61980486D01*
X93331304Y-62238405D01*
X93431939Y-62481359D01*
X93578038Y-62700013D01*
X93763987Y-62885962D01*
X93982641Y-63032061D01*
X94192530Y-63119000D01*
X93982641Y-63205939D01*
X93763987Y-63352038D01*
X93578038Y-63537987D01*
X93431939Y-63756641D01*
X93331304Y-63999595D01*
X93280000Y-64257514D01*
X93280000Y-64520486D01*
X93331304Y-64778405D01*
X93431939Y-65021359D01*
X93578038Y-65240013D01*
X93763987Y-65425962D01*
X93982641Y-65572061D01*
X94225595Y-65672696D01*
X94483514Y-65724000D01*
X94746486Y-65724000D01*
X95004405Y-65672696D01*
X95247359Y-65572061D01*
X95466013Y-65425962D01*
X95651962Y-65240013D01*
X95798061Y-65021359D01*
X95898696Y-64778405D01*
X95950000Y-64520486D01*
X95950000Y-64257514D01*
X95898696Y-63999595D01*
X95798061Y-63756641D01*
X95752866Y-63689000D01*
X98356928Y-63689000D01*
X98356928Y-65089000D01*
X98369188Y-65213482D01*
X98405498Y-65333180D01*
X98464463Y-65443494D01*
X98543815Y-65540185D01*
X98640506Y-65619537D01*
X98750820Y-65678502D01*
X98870518Y-65714812D01*
X98995000Y-65727072D01*
X100395000Y-65727072D01*
X100519482Y-65714812D01*
X100639180Y-65678502D01*
X100749494Y-65619537D01*
X100846185Y-65540185D01*
X100925537Y-65443494D01*
X100984502Y-65333180D01*
X101020812Y-65213482D01*
X101033072Y-65089000D01*
X101033072Y-63689000D01*
X101020812Y-63564518D01*
X100984502Y-63444820D01*
X100925537Y-63334506D01*
X100846185Y-63237815D01*
X100749494Y-63158463D01*
X100639180Y-63099498D01*
X100519482Y-63063188D01*
X100395000Y-63050928D01*
X100289475Y-63050928D01*
X100377203Y-63004037D01*
X100436664Y-62770269D01*
X99695000Y-62028605D01*
X98953336Y-62770269D01*
X99012797Y-63004037D01*
X99113620Y-63050928D01*
X98995000Y-63050928D01*
X98870518Y-63063188D01*
X98750820Y-63099498D01*
X98640506Y-63158463D01*
X98543815Y-63237815D01*
X98464463Y-63334506D01*
X98405498Y-63444820D01*
X98369188Y-63564518D01*
X98356928Y-63689000D01*
X95752866Y-63689000D01*
X95651962Y-63537987D01*
X95466013Y-63352038D01*
X95247359Y-63205939D01*
X95037470Y-63119000D01*
X95247359Y-63032061D01*
X95466013Y-62885962D01*
X95651962Y-62700013D01*
X95798061Y-62481359D01*
X95898696Y-62238405D01*
X95950000Y-61980486D01*
X95950000Y-61923473D01*
X98355610Y-61923473D01*
X98395875Y-62183344D01*
X98486065Y-62430366D01*
X98539963Y-62531203D01*
X98773731Y-62590664D01*
X99515395Y-61849000D01*
X99874605Y-61849000D01*
X100616269Y-62590664D01*
X100850037Y-62531203D01*
X100942445Y-62332512D01*
X104223783Y-62332512D01*
X104265213Y-62612130D01*
X104360397Y-62878292D01*
X104425616Y-63000309D01*
X104412815Y-63010815D01*
X104333463Y-63107506D01*
X104274498Y-63217820D01*
X104238188Y-63337518D01*
X104225928Y-63462000D01*
X104225928Y-65062000D01*
X104238188Y-65186482D01*
X104274498Y-65306180D01*
X104333463Y-65416494D01*
X104412815Y-65513185D01*
X104509506Y-65592537D01*
X104619820Y-65651502D01*
X104739518Y-65687812D01*
X104864000Y-65700072D01*
X106464000Y-65700072D01*
X106588482Y-65687812D01*
X106708180Y-65651502D01*
X106818494Y-65592537D01*
X106915185Y-65513185D01*
X106994537Y-65416494D01*
X107053502Y-65306180D01*
X107089812Y-65186482D01*
X107102072Y-65062000D01*
X107102072Y-63462000D01*
X107089812Y-63337518D01*
X107053502Y-63217820D01*
X106994537Y-63107506D01*
X106915185Y-63010815D01*
X106902242Y-63000193D01*
X107021571Y-62748004D01*
X107090300Y-62473816D01*
X107104217Y-62191488D01*
X107102960Y-62183000D01*
X112428815Y-62183000D01*
X112457487Y-62474111D01*
X112542401Y-62754034D01*
X112680294Y-63012014D01*
X112865866Y-63238134D01*
X113091986Y-63423706D01*
X113109374Y-63433000D01*
X113091986Y-63442294D01*
X112865866Y-63627866D01*
X112680294Y-63853986D01*
X112542401Y-64111966D01*
X112457487Y-64391889D01*
X112428815Y-64683000D01*
X112457487Y-64974111D01*
X112542401Y-65254034D01*
X112680294Y-65512014D01*
X112865866Y-65738134D01*
X112929337Y-65790223D01*
X112827614Y-65844595D01*
X112693038Y-65955038D01*
X112582595Y-66089614D01*
X112500528Y-66243150D01*
X112449992Y-66409746D01*
X112432928Y-66583000D01*
X112432928Y-67783000D01*
X112449992Y-67956254D01*
X112500528Y-68122850D01*
X112582595Y-68276386D01*
X112693038Y-68410962D01*
X112827614Y-68521405D01*
X112981150Y-68603472D01*
X113147746Y-68654008D01*
X113321000Y-68671072D01*
X114771000Y-68671072D01*
X114944254Y-68654008D01*
X115110850Y-68603472D01*
X115264386Y-68521405D01*
X115398962Y-68410962D01*
X115509405Y-68276386D01*
X115591472Y-68122850D01*
X115642008Y-67956254D01*
X115659072Y-67783000D01*
X115659072Y-66583000D01*
X115642008Y-66409746D01*
X115591472Y-66243150D01*
X115509405Y-66089614D01*
X115398962Y-65955038D01*
X115264386Y-65844595D01*
X115162663Y-65790223D01*
X115226134Y-65738134D01*
X115411706Y-65512014D01*
X115549599Y-65254034D01*
X115634513Y-64974111D01*
X115663185Y-64683000D01*
X115634513Y-64391889D01*
X115549599Y-64111966D01*
X115411706Y-63853986D01*
X115226134Y-63627866D01*
X115000014Y-63442294D01*
X114982626Y-63433000D01*
X115000014Y-63423706D01*
X115226134Y-63238134D01*
X115411706Y-63012014D01*
X115549599Y-62754034D01*
X115634513Y-62474111D01*
X115663185Y-62183000D01*
X115634513Y-61891889D01*
X115549599Y-61611966D01*
X115411706Y-61353986D01*
X115226134Y-61127866D01*
X115000014Y-60942294D01*
X114974278Y-60928538D01*
X115180429Y-60772049D01*
X115373496Y-60554193D01*
X115520352Y-60302858D01*
X115612476Y-60039890D01*
X115491155Y-59810000D01*
X114173000Y-59810000D01*
X114173000Y-59830000D01*
X113919000Y-59830000D01*
X113919000Y-59810000D01*
X112600845Y-59810000D01*
X112479524Y-60039890D01*
X112571648Y-60302858D01*
X112718504Y-60554193D01*
X112911571Y-60772049D01*
X113117722Y-60928538D01*
X113091986Y-60942294D01*
X112865866Y-61127866D01*
X112680294Y-61353986D01*
X112542401Y-61611966D01*
X112457487Y-61891889D01*
X112428815Y-62183000D01*
X107102960Y-62183000D01*
X107062787Y-61911870D01*
X106967603Y-61645708D01*
X106900671Y-61520486D01*
X106656702Y-61448903D01*
X105843605Y-62262000D01*
X105857748Y-62276143D01*
X105678143Y-62455748D01*
X105664000Y-62441605D01*
X105649858Y-62455748D01*
X105470253Y-62276143D01*
X105484395Y-62262000D01*
X104671298Y-61448903D01*
X104427329Y-61520486D01*
X104306429Y-61775996D01*
X104237700Y-62050184D01*
X104223783Y-62332512D01*
X100942445Y-62332512D01*
X100960934Y-62292758D01*
X101023183Y-62037260D01*
X101034390Y-61774527D01*
X100994125Y-61514656D01*
X100904543Y-61269298D01*
X104850903Y-61269298D01*
X105664000Y-62082395D01*
X106477097Y-61269298D01*
X106405514Y-61025329D01*
X106150004Y-60904429D01*
X105875816Y-60835700D01*
X105593488Y-60821783D01*
X105313870Y-60863213D01*
X105047708Y-60958397D01*
X104922486Y-61025329D01*
X104850903Y-61269298D01*
X100904543Y-61269298D01*
X100903935Y-61267634D01*
X100850037Y-61166797D01*
X100616269Y-61107336D01*
X99874605Y-61849000D01*
X99515395Y-61849000D01*
X98773731Y-61107336D01*
X98539963Y-61166797D01*
X98429066Y-61405242D01*
X98366817Y-61660740D01*
X98355610Y-61923473D01*
X95950000Y-61923473D01*
X95950000Y-61717514D01*
X95898696Y-61459595D01*
X95798061Y-61216641D01*
X95651962Y-60997987D01*
X95581706Y-60927731D01*
X98953336Y-60927731D01*
X99695000Y-61669395D01*
X100436664Y-60927731D01*
X100377203Y-60693963D01*
X100138758Y-60583066D01*
X99883260Y-60520817D01*
X99620527Y-60509610D01*
X99360656Y-60549875D01*
X99113634Y-60640065D01*
X99012797Y-60693963D01*
X98953336Y-60927731D01*
X95581706Y-60927731D01*
X95466013Y-60812038D01*
X95247359Y-60665939D01*
X95004405Y-60565304D01*
X94746486Y-60514000D01*
X94483514Y-60514000D01*
X94225595Y-60565304D01*
X93982641Y-60665939D01*
X93763987Y-60812038D01*
X93578038Y-60997987D01*
X93431939Y-61216641D01*
X93331304Y-61459595D01*
X93280000Y-61717514D01*
X87710925Y-61717514D01*
X87694513Y-61550889D01*
X87609599Y-61270966D01*
X87471706Y-61012986D01*
X87286134Y-60786866D01*
X87060014Y-60601294D01*
X87042626Y-60592000D01*
X87060014Y-60582706D01*
X87286134Y-60397134D01*
X87471706Y-60171014D01*
X87609599Y-59913034D01*
X87694513Y-59633111D01*
X87723185Y-59342000D01*
X87694513Y-59050889D01*
X87609599Y-58770966D01*
X87471706Y-58512986D01*
X87286134Y-58286866D01*
X87060014Y-58101294D01*
X87042626Y-58092000D01*
X87060014Y-58082706D01*
X87286134Y-57897134D01*
X87471706Y-57671014D01*
X87609599Y-57413034D01*
X87694513Y-57133111D01*
X87723185Y-56842000D01*
X87694513Y-56550889D01*
X87609599Y-56270966D01*
X87471706Y-56012986D01*
X87286134Y-55786866D01*
X87239402Y-55748514D01*
X93280000Y-55748514D01*
X93280000Y-56011486D01*
X93331304Y-56269405D01*
X93431939Y-56512359D01*
X93578038Y-56731013D01*
X93763987Y-56916962D01*
X93982641Y-57063061D01*
X94192530Y-57150000D01*
X93982641Y-57236939D01*
X93763987Y-57383038D01*
X93578038Y-57568987D01*
X93431939Y-57787641D01*
X93331304Y-58030595D01*
X93280000Y-58288514D01*
X93280000Y-58551486D01*
X93331304Y-58809405D01*
X93431939Y-59052359D01*
X93578038Y-59271013D01*
X93763987Y-59456962D01*
X93982641Y-59603061D01*
X94225595Y-59703696D01*
X94483514Y-59755000D01*
X94746486Y-59755000D01*
X95004405Y-59703696D01*
X95247359Y-59603061D01*
X95466013Y-59456962D01*
X95651962Y-59271013D01*
X95798061Y-59052359D01*
X95898696Y-58809405D01*
X95950000Y-58551486D01*
X95950000Y-58288514D01*
X95898696Y-58030595D01*
X95798061Y-57787641D01*
X95752866Y-57720000D01*
X98356928Y-57720000D01*
X98356928Y-59120000D01*
X98369188Y-59244482D01*
X98405498Y-59364180D01*
X98464463Y-59474494D01*
X98543815Y-59571185D01*
X98640506Y-59650537D01*
X98750820Y-59709502D01*
X98870518Y-59745812D01*
X98995000Y-59758072D01*
X100395000Y-59758072D01*
X100519482Y-59745812D01*
X100639180Y-59709502D01*
X100749494Y-59650537D01*
X100846185Y-59571185D01*
X100925537Y-59474494D01*
X100984502Y-59364180D01*
X101020812Y-59244482D01*
X101033072Y-59120000D01*
X101033072Y-57720000D01*
X101020812Y-57595518D01*
X100984502Y-57475820D01*
X100925537Y-57365506D01*
X100846185Y-57268815D01*
X100749494Y-57189463D01*
X100639180Y-57130498D01*
X100519482Y-57094188D01*
X100395000Y-57081928D01*
X100289475Y-57081928D01*
X100377203Y-57035037D01*
X100436664Y-56801269D01*
X99695000Y-56059605D01*
X98953336Y-56801269D01*
X99012797Y-57035037D01*
X99113620Y-57081928D01*
X98995000Y-57081928D01*
X98870518Y-57094188D01*
X98750820Y-57130498D01*
X98640506Y-57189463D01*
X98543815Y-57268815D01*
X98464463Y-57365506D01*
X98405498Y-57475820D01*
X98369188Y-57595518D01*
X98356928Y-57720000D01*
X95752866Y-57720000D01*
X95651962Y-57568987D01*
X95466013Y-57383038D01*
X95247359Y-57236939D01*
X95037470Y-57150000D01*
X95247359Y-57063061D01*
X95466013Y-56916962D01*
X95651962Y-56731013D01*
X95798061Y-56512359D01*
X95898696Y-56269405D01*
X95950000Y-56011486D01*
X95950000Y-55954473D01*
X98355610Y-55954473D01*
X98395875Y-56214344D01*
X98486065Y-56461366D01*
X98539963Y-56562203D01*
X98773731Y-56621664D01*
X99515395Y-55880000D01*
X99874605Y-55880000D01*
X100616269Y-56621664D01*
X100850037Y-56562203D01*
X100960934Y-56323758D01*
X101013132Y-56109512D01*
X104223783Y-56109512D01*
X104265213Y-56389130D01*
X104360397Y-56655292D01*
X104425616Y-56777309D01*
X104412815Y-56787815D01*
X104333463Y-56884506D01*
X104274498Y-56994820D01*
X104238188Y-57114518D01*
X104225928Y-57239000D01*
X104225928Y-58839000D01*
X104238188Y-58963482D01*
X104274498Y-59083180D01*
X104333463Y-59193494D01*
X104412815Y-59290185D01*
X104509506Y-59369537D01*
X104619820Y-59428502D01*
X104739518Y-59464812D01*
X104864000Y-59477072D01*
X106464000Y-59477072D01*
X106588482Y-59464812D01*
X106708180Y-59428502D01*
X106818494Y-59369537D01*
X106871410Y-59326110D01*
X112479524Y-59326110D01*
X112600845Y-59556000D01*
X113919000Y-59556000D01*
X113919000Y-58356835D01*
X114173000Y-58356835D01*
X114173000Y-59556000D01*
X115491155Y-59556000D01*
X115612476Y-59326110D01*
X115520352Y-59063142D01*
X115373496Y-58811807D01*
X115180429Y-58593951D01*
X114948570Y-58417947D01*
X114686830Y-58290558D01*
X114405267Y-58216680D01*
X114173000Y-58356835D01*
X113919000Y-58356835D01*
X113686733Y-58216680D01*
X113405170Y-58290558D01*
X113143430Y-58417947D01*
X112911571Y-58593951D01*
X112718504Y-58811807D01*
X112571648Y-59063142D01*
X112479524Y-59326110D01*
X106871410Y-59326110D01*
X106915185Y-59290185D01*
X106994537Y-59193494D01*
X107053502Y-59083180D01*
X107089812Y-58963482D01*
X107102072Y-58839000D01*
X107102072Y-57239000D01*
X107089812Y-57114518D01*
X107053502Y-56994820D01*
X106994537Y-56884506D01*
X106915185Y-56787815D01*
X106902242Y-56777193D01*
X107021571Y-56525004D01*
X107090300Y-56250816D01*
X107104217Y-55968488D01*
X107062787Y-55688870D01*
X106967603Y-55422708D01*
X106900671Y-55297486D01*
X106656702Y-55225903D01*
X105843605Y-56039000D01*
X105857748Y-56053143D01*
X105678143Y-56232748D01*
X105664000Y-56218605D01*
X105649858Y-56232748D01*
X105470253Y-56053143D01*
X105484395Y-56039000D01*
X104671298Y-55225903D01*
X104427329Y-55297486D01*
X104306429Y-55552996D01*
X104237700Y-55827184D01*
X104223783Y-56109512D01*
X101013132Y-56109512D01*
X101023183Y-56068260D01*
X101034390Y-55805527D01*
X100994125Y-55545656D01*
X100903935Y-55298634D01*
X100850037Y-55197797D01*
X100616269Y-55138336D01*
X99874605Y-55880000D01*
X99515395Y-55880000D01*
X98773731Y-55138336D01*
X98539963Y-55197797D01*
X98429066Y-55436242D01*
X98366817Y-55691740D01*
X98355610Y-55954473D01*
X95950000Y-55954473D01*
X95950000Y-55748514D01*
X95898696Y-55490595D01*
X95798061Y-55247641D01*
X95651962Y-55028987D01*
X95581706Y-54958731D01*
X98953336Y-54958731D01*
X99695000Y-55700395D01*
X100349097Y-55046298D01*
X104850903Y-55046298D01*
X105664000Y-55859395D01*
X106477097Y-55046298D01*
X106405514Y-54802329D01*
X106150004Y-54681429D01*
X105875816Y-54612700D01*
X105593488Y-54598783D01*
X105313870Y-54640213D01*
X105047708Y-54735397D01*
X104922486Y-54802329D01*
X104850903Y-55046298D01*
X100349097Y-55046298D01*
X100436664Y-54958731D01*
X100377203Y-54724963D01*
X100138758Y-54614066D01*
X99883260Y-54551817D01*
X99620527Y-54540610D01*
X99360656Y-54580875D01*
X99113634Y-54671065D01*
X99012797Y-54724963D01*
X98953336Y-54958731D01*
X95581706Y-54958731D01*
X95466013Y-54843038D01*
X95247359Y-54696939D01*
X95004405Y-54596304D01*
X94746486Y-54545000D01*
X94483514Y-54545000D01*
X94225595Y-54596304D01*
X93982641Y-54696939D01*
X93763987Y-54843038D01*
X93578038Y-55028987D01*
X93431939Y-55247641D01*
X93331304Y-55490595D01*
X93280000Y-55748514D01*
X87239402Y-55748514D01*
X87060014Y-55601294D01*
X86802034Y-55463401D01*
X86522111Y-55378487D01*
X86303950Y-55357000D01*
X85908050Y-55357000D01*
X85689889Y-55378487D01*
X85409966Y-55463401D01*
X85151986Y-55601294D01*
X84925866Y-55786866D01*
X84740294Y-56012986D01*
X84602401Y-56270966D01*
X84517487Y-56550889D01*
X84488815Y-56842000D01*
X77597000Y-56842000D01*
X77597000Y-53779495D01*
X78025000Y-53779495D01*
X78025000Y-54170505D01*
X78101282Y-54554003D01*
X78250915Y-54915250D01*
X78468149Y-55240364D01*
X78744636Y-55516851D01*
X79069750Y-55734085D01*
X79430997Y-55883718D01*
X79814495Y-55960000D01*
X80205505Y-55960000D01*
X80589003Y-55883718D01*
X80950250Y-55734085D01*
X81275364Y-55516851D01*
X81551851Y-55240364D01*
X81769085Y-54915250D01*
X81918718Y-54554003D01*
X81995000Y-54170505D01*
X81995000Y-53779495D01*
X117395000Y-53779495D01*
X117395000Y-54170505D01*
X117471282Y-54554003D01*
X117620915Y-54915250D01*
X117838149Y-55240364D01*
X118114636Y-55516851D01*
X118439750Y-55734085D01*
X118800997Y-55883718D01*
X119184495Y-55960000D01*
X119575505Y-55960000D01*
X119959003Y-55883718D01*
X120320250Y-55734085D01*
X120645364Y-55516851D01*
X120921851Y-55240364D01*
X121139085Y-54915250D01*
X121288718Y-54554003D01*
X121365000Y-54170505D01*
X121365000Y-53779495D01*
X121288718Y-53395997D01*
X121139085Y-53034750D01*
X120921851Y-52709636D01*
X120645364Y-52433149D01*
X120320250Y-52215915D01*
X119959003Y-52066282D01*
X119575505Y-51990000D01*
X119184495Y-51990000D01*
X118800997Y-52066282D01*
X118439750Y-52215915D01*
X118114636Y-52433149D01*
X117838149Y-52709636D01*
X117620915Y-53034750D01*
X117471282Y-53395997D01*
X117395000Y-53779495D01*
X81995000Y-53779495D01*
X81918718Y-53395997D01*
X81769085Y-53034750D01*
X81551851Y-52709636D01*
X81275364Y-52433149D01*
X80950250Y-52215915D01*
X80589003Y-52066282D01*
X80205505Y-51990000D01*
X79814495Y-51990000D01*
X79430997Y-52066282D01*
X79069750Y-52215915D01*
X78744636Y-52433149D01*
X78468149Y-52709636D01*
X78250915Y-53034750D01*
X78101282Y-53395997D01*
X78025000Y-53779495D01*
X77597000Y-53779495D01*
X77597000Y-51562000D01*
X121793000Y-51562000D01*
X121793000Y-75438000D01*
%TD*%
M02*
